M48
; DRILL file {KiCad 8.0.5} date 2024-10-26T23:33:34-0400
; FORMAT={-:-/ absolute / metric / decimal}
; #@! TF.CreationDate,2024-10-26T23:33:34-04:00
; #@! TF.GenerationSoftware,Kicad,Pcbnew,8.0.5
; #@! TF.FileFunction,Plated,1,4,PTH
FMAT,2
METRIC
; #@! TA.AperFunction,Plated,PTH,ViaDrill
T1C0.250
; #@! TA.AperFunction,Plated,PTH,ViaDrill
T2C0.300
; #@! TA.AperFunction,Plated,PTH,ComponentDrill
T3C0.600
; #@! TA.AperFunction,Plated,PTH,ComponentDrill
T4C1.000
; #@! TA.AperFunction,Plated,PTH,ComponentDrill
T5C1.200
; #@! TA.AperFunction,Plated,PTH,ComponentDrill
T6C1.200
%
G90
G05
T1
X169.5Y-92.542
T2
X111.491Y-123.5
X111.5Y-121.5
X111.5Y-122.5
X111.741Y-86.5
X111.741Y-87.5
X111.741Y-88.5
X112.965Y-107.75
X113.0Y-97.651
X114.991Y-99.666
X114.991Y-103.666
X115.0Y-100.5
X115.0Y-104.5
X118.0Y-63.0
X118.5Y-70.0
X118.5Y-122.5
X119.0Y-108.5
X119.645Y-107.8
X121.0Y-127.0
X121.237Y-82.512
X122.0Y-80.5
X122.0Y-82.0
X122.849Y-80.293
X123.19Y-79.31
X123.734Y-120.275
X124.149Y-79.356
X124.5Y-78.5
X124.5Y-116.5
X125.263Y-89.755
X125.263Y-91.0
X125.529Y-78.226
X125.73Y-77.27
X127.0Y-77.5
X127.961Y-86.539
X128.0Y-77.5
X128.066Y-76.119
X128.27Y-75.23
X129.0Y-86.728
X129.0Y-110.5
X129.428Y-95.009
X129.551Y-75.457
X130.5Y-75.5
X131.0Y-131.5
X132.0Y-65.0
X132.0Y-99.0
X132.0Y-106.5
X132.5Y-74.5
X132.5Y-110.5
X132.514Y-73.632
X132.529Y-114.369
X132.739Y-64.081
X133.072Y-87.251
X133.349Y-63.16
X134.5Y-99.25
X134.95Y-127.55
X135.006Y-61.814
X135.05Y-60.95
X135.841Y-59.332
X135.89Y-58.5
X135.898Y-94.923
X136.879Y-88.116
X137.0Y-127.5
X137.495Y-55.901
X137.5Y-55.0
X137.5Y-87.5
X137.5Y-108.5
X137.934Y-85.434
X138.5Y-86.0
X138.5Y-106.5
X138.5Y-108.5
X138.5Y-118.5
X140.309Y-85.508
X140.317Y-101.049
X141.0Y-65.0
X141.0Y-84.834
X141.0Y-100.5
X141.0Y-109.5
X141.84Y-64.967
X142.0Y-66.5
X142.0Y-106.0
X142.0Y-107.0
X142.0Y-113.5
X142.244Y-115.681
X142.628Y-67.431
X143.0Y-68.5
X143.0Y-107.0
X144.5Y-91.0
X144.619Y-91.792
X145.5Y-93.0
X146.117Y-92.49
X146.993Y-108.829
X147.0Y-108.0
X147.719Y-124.5
X148.0Y-71.5
X148.0Y-90.0
X148.0Y-97.0
X148.282Y-70.667
X148.356Y-96.271
X148.771Y-89.306
X149.0Y-70.0
X149.0Y-88.5
X149.0Y-98.0
X149.656Y-98.713
X150.0Y-83.412
X150.0Y-99.5
X150.269Y-82.419
X151.16Y-95.0
X151.186Y-73.5
X151.283Y-102.773
X151.5Y-122.0
X151.5Y-124.0
X151.5Y-126.5
X151.5Y-131.5
X151.665Y-101.954
X151.723Y-72.872
X151.786Y-94.4
X151.945Y-92.453
X152.0Y-129.5
X152.3Y-72.247
X152.5Y-102.0
X152.5Y-122.5
X152.5Y-125.0
X152.545Y-91.814
X153.0Y-41.0
X153.0Y-81.5
X153.5Y-131.0
X153.765Y-80.909
X153.841Y-124.5
X154.0Y-110.0
X154.0Y-111.0
X154.4Y-80.222
X154.681Y-67.853
X155.0Y-79.5
X155.0Y-111.0
X155.5Y-68.5
X155.774Y-80.017
X156.0Y-126.5
X156.0Y-127.978
X156.0Y-129.5
X156.5Y-78.5
X157.085Y-93.831
X157.21Y-121.21
X157.5Y-78.5
X157.924Y-93.762
X158.0Y-121.028
X158.0Y-127.978
X158.5Y-73.5
X158.5Y-74.5
X158.761Y-93.778
X159.877Y-96.295
X160.0Y-133.0
X160.5Y-46.5
X160.5Y-97.0
X160.5Y-98.726
X160.5Y-104.5
X160.522Y-91.618
X160.579Y-92.489
X161.0Y-72.5
X161.0Y-98.0
X161.0Y-132.0
X161.5Y-46.5
X161.5Y-99.5
X162.0Y-90.0
X162.0Y-96.19
X162.0Y-104.5
X162.0Y-133.0
X162.122Y-100.261
X162.135Y-89.155
X162.5Y-46.5
X162.5Y-131.5
X162.837Y-101.007
X163.0Y-72.5
X163.0Y-89.0
X163.0Y-95.0
X163.0Y-130.278
X163.5Y-46.5
X163.5Y-133.0
X163.711Y-101.036
X164.0Y-131.5
X164.066Y-94.993
X164.5Y-41.026
X164.5Y-130.278
X164.959Y-86.26
X165.0Y-95.0
X165.5Y-94.0
X166.359Y-93.792
X166.641Y-117.725
X167.5Y-108.0
X167.503Y-108.814
X167.676Y-67.705
X168.5Y-80.909
X168.665Y-103.377
X168.79Y-104.287
X169.0Y-67.0
X169.206Y-117.734
X169.5Y-103.5
X169.5Y-107.5
X169.741Y-95.966
X169.891Y-108.415
X170.0Y-87.5
X170.0Y-109.5
X170.361Y-92.608
X170.496Y-90.912
X170.5Y-48.0
X170.5Y-72.5
X170.5Y-90.0
X170.5Y-97.5
X170.5Y-125.0
X170.517Y-96.559
X171.246Y-95.909
X171.3Y-132.5
X171.3Y-134.465
X171.5Y-90.334
X171.5Y-99.0
X171.5Y-110.0
X172.0Y-135.0
X172.113Y-108.233
X172.132Y-109.197
X172.17Y-99.649
X172.236Y-102.916
X172.5Y-72.5
X172.5Y-104.0
X173.018Y-103.345
X173.5Y-96.5
X173.551Y-99.268
X173.957Y-100.165
X174.0Y-83.0
X174.0Y-86.5
X174.0Y-135.0
X174.5Y-82.5
X174.5Y-87.0
X174.5Y-109.0
X174.845Y-91.504
X175.832Y-121.5
X175.86Y-122.507
X176.0Y-40.978
X176.0Y-107.0
X176.5Y-135.0
X176.997Y-111.633
X177.0Y-82.52
X177.25Y-66.75
X177.419Y-88.0
X177.6Y-110.6
X177.7Y-132.5
X177.7Y-134.3
X177.76Y-111.392
X178.0Y-77.5
X178.496Y-99.835
X178.5Y-53.5
X178.5Y-54.5
X178.5Y-105.4
X178.5Y-125.0
X178.599Y-103.642
X178.774Y-104.456
X178.79Y-100.693
X178.942Y-77.157
X179.0Y-88.0
X179.0Y-91.5
X179.5Y-82.5
X179.5Y-84.5
X179.5Y-87.0
X179.5Y-92.5
X179.559Y-101.082
X179.941Y-75.499
X180.0Y-76.5
X180.0Y-93.5
X180.0Y-96.5
X180.28Y-74.657
X180.392Y-62.319
X180.5Y-101.0
X180.5Y-102.5
X180.936Y-101.73
X181.105Y-61.86
X181.258Y-94.657
X181.5Y-61.0
X181.746Y-60.01
X182.5Y-59.526
X183.588Y-97.76
X183.649Y-79.0
X183.939Y-96.961
X184.0Y-79.799
X184.26Y-96.226
X184.322Y-80.535
X185.0Y-77.5
X185.674Y-83.067
X185.674Y-81.888
X185.749Y-78.086
X186.5Y-108.0
X186.53Y-108.866
X186.604Y-68.528
X186.801Y-67.598
X187.0Y-66.5
X187.5Y-40.993
X187.5Y-101.0
X187.676Y-101.786
X188.0Y-55.0
X188.0Y-104.0
X188.378Y-54.244
X189.0Y-53.5
X189.0Y-101.5
X189.149Y-102.388
X189.244Y-111.345
X189.72Y-112.0
X190.0Y-109.5
X190.0Y-111.0
X190.341Y-110.271
X190.591Y-104.641
X191.0Y-61.0
X191.572Y-104.641
X191.663Y-61.604
X192.0Y-66.0
X192.107Y-105.24
X192.772Y-66.6
X193.0Y-90.334
X193.297Y-67.204
X193.982Y-90.341
X194.0Y-94.0
X194.344Y-104.614
X194.5Y-41.0
X194.5Y-92.5
X194.5Y-102.0
X195.0Y-94.0
X195.0Y-104.0
X195.5Y-72.0
X195.5Y-73.0
X195.576Y-89.999
X196.0Y-111.716
X196.0Y-125.0
X196.5Y-80.0
X197.5Y-97.5
X197.5Y-99.0
X197.5Y-105.0
X197.7Y-91.275
X197.906Y-98.232
X199.0Y-67.5
X201.0Y-125.478
X201.5Y-116.228
X204.028Y-91.173
X204.264Y-105.043
T4
X114.5Y-51.42
X114.5Y-53.96
X114.5Y-56.5
X114.5Y-59.04
X114.5Y-66.7
X114.5Y-69.24
X114.5Y-71.78
X114.5Y-74.32
X117.04Y-51.42
X117.04Y-53.96
X117.04Y-56.5
X117.04Y-59.04
X140.425Y-41.199
X142.965Y-41.199
X145.505Y-41.199
X148.045Y-41.199
X150.585Y-41.199
X187.18Y-132.0
X189.72Y-132.0
X192.26Y-132.0
X194.8Y-132.0
X199.46Y-75.96
X199.46Y-78.5
X199.46Y-81.04
X199.46Y-83.58
X202.0Y-58.42
X202.0Y-60.96
X202.0Y-63.5
X202.0Y-66.04
X202.0Y-68.58
X202.0Y-75.96
X202.0Y-78.5
X202.0Y-81.04
X202.0Y-83.58
T5
X118.11Y-41.23
X118.11Y-43.77
X120.65Y-41.23
X120.65Y-43.77
X123.19Y-41.23
X123.19Y-43.77
X125.73Y-41.23
X125.73Y-43.77
X128.27Y-41.23
X128.27Y-43.77
X130.81Y-41.23
X130.81Y-43.77
X133.35Y-41.23
X133.35Y-43.77
X135.89Y-41.23
X135.89Y-43.77
T6
X114.991Y-120.0
X114.991Y-125.0
X115.241Y-85.0
X115.241Y-90.0
X156.491Y-44.526
X161.491Y-44.526
X167.991Y-44.478
X172.991Y-44.478
X179.491Y-44.493
X184.491Y-44.493
X190.991Y-44.478
X195.991Y-44.478
T3
G00X170.17Y-130.333
M15
G01X170.17Y-131.233
M16
G05
G00X170.17Y-133.573
M15
G01X170.17Y-134.373
M16
G05
G00X178.83Y-130.333
M15
G01X178.83Y-131.233
M16
G05
G00X178.83Y-133.573
M15
G01X178.83Y-134.373
M16
G05
M30
