%TF.GenerationSoftware,KiCad,Pcbnew,8.0.5*%
%TF.CreationDate,2024-10-26T23:33:34-04:00*%
%TF.ProjectId,stm-midi-poc1,73746d2d-6d69-4646-992d-706f63312e6b,1*%
%TF.SameCoordinates,Original*%
%TF.FileFunction,Profile,NP*%
%FSLAX46Y46*%
G04 Gerber Fmt 4.6, Leading zero omitted, Abs format (unit mm)*
G04 Created by KiCad (PCBNEW 8.0.5) date 2024-10-26 23:33:34*
%MOMM*%
%LPD*%
G01*
G04 APERTURE LIST*
%TA.AperFunction,Profile*%
%ADD10C,0.050000*%
%TD*%
%ADD11C,0.350000*%
%ADD12O,0.599999X1.500022*%
%ADD13O,0.599999X1.399997*%
G04 APERTURE END LIST*
D10*
X206991181Y-131978476D02*
X206991181Y-40978476D01*
X202491181Y-36478476D02*
X111491181Y-36478476D01*
X202491181Y-36478476D02*
G75*
G02*
X206991224Y-40978476I19J-4500024D01*
G01*
X202491181Y-136478476D02*
X111491181Y-136478476D01*
X111491181Y-136478476D02*
G75*
G02*
X106991224Y-131978476I19J4499976D01*
G01*
X106991181Y-40978476D02*
X106991181Y-131978476D01*
X206991181Y-131978476D02*
G75*
G02*
X202491181Y-136478481I-4499981J-24D01*
G01*
X106991181Y-40978476D02*
G75*
G02*
X111491181Y-36478481I4500019J-24D01*
G01*
D11*
X114500000Y-66700000D03*
X114500000Y-69240000D03*
X114500000Y-71780000D03*
X114500000Y-74320000D03*
X167991181Y-44478476D03*
X172991181Y-44478476D03*
X202000000Y-58420000D03*
X202000000Y-60960000D03*
X202000000Y-63500000D03*
X202000000Y-66040000D03*
X202000000Y-68580000D03*
X204821181Y-115478476D03*
X204821181Y-112478476D03*
X114991181Y-125000000D03*
X114991181Y-120000000D03*
X202491181Y-131978476D03*
X194800000Y-132000000D03*
X192260000Y-132000000D03*
X189720000Y-132000000D03*
X187180000Y-132000000D03*
X115241181Y-90000000D03*
X115241181Y-85000000D03*
X109170000Y-108500000D03*
X109170000Y-111500000D03*
X202000000Y-83580000D03*
X199460000Y-83580000D03*
X202000000Y-81040000D03*
X199460000Y-81040000D03*
X202000000Y-78500000D03*
X199460000Y-78500000D03*
X202000000Y-75960000D03*
X199460000Y-75960000D03*
X109170000Y-98401199D03*
X109170000Y-101401199D03*
D12*
X170170000Y-130783476D03*
X178830000Y-130783476D03*
D13*
X178830000Y-133973476D03*
X170170000Y-133973476D03*
D11*
X140425000Y-41198800D03*
X142965000Y-41198800D03*
X145505000Y-41198800D03*
X148045000Y-41198800D03*
X150585000Y-41198800D03*
X111491179Y-131978478D03*
X190991181Y-44478472D03*
X195991181Y-44478472D03*
X135890000Y-41230000D03*
X135890000Y-43770000D03*
X133350000Y-41230000D03*
X133350000Y-43770000D03*
X130810000Y-41230000D03*
X130810000Y-43770000D03*
X128270000Y-41230000D03*
X128270000Y-43770000D03*
X125730000Y-41230000D03*
X125730000Y-43770000D03*
X123190000Y-41230000D03*
X123190000Y-43770000D03*
X120650000Y-41230000D03*
X120650000Y-43770000D03*
X118110000Y-41230000D03*
X118110000Y-43770000D03*
X117040000Y-59040000D03*
X114500000Y-59040000D03*
X117040000Y-56500000D03*
X114500000Y-56500000D03*
X117040000Y-53960000D03*
X114500000Y-53960000D03*
X117040000Y-51420000D03*
X114500000Y-51420000D03*
X156491181Y-44525976D03*
X161491181Y-44525976D03*
X179491181Y-44493096D03*
X184491181Y-44493096D03*
X202491181Y-40978476D03*
X111491181Y-40978476D03*
M02*
