M48
; DRILL file {KiCad 8.0.5} date 2024-12-21T22:21:25-0500
; FORMAT={-:-/ absolute / metric / decimal}
; #@! TF.CreationDate,2024-12-21T22:21:25-05:00
; #@! TF.GenerationSoftware,Kicad,Pcbnew,8.0.5
; #@! TF.FileFunction,Plated,1,4,PTH
FMAT,2
METRIC
; #@! TA.AperFunction,Plated,PTH,ViaDrill
T1C0.250
; #@! TA.AperFunction,Plated,PTH,ViaDrill
T2C0.300
; #@! TA.AperFunction,Plated,PTH,ComponentDrill
T3C0.600
; #@! TA.AperFunction,Plated,PTH,ComponentDrill
T4C1.000
; #@! TA.AperFunction,Plated,PTH,ComponentDrill
T5C1.000
; #@! TA.AperFunction,Plated,PTH,ComponentDrill
T6C1.200
; #@! TA.AperFunction,Plated,PTH,ComponentDrill
T7C1.200
%
G90
G05
T1
X169.5Y-92.542
T2
X109.0Y-46.0
X109.0Y-129.5
X110.0Y-80.0
X110.681Y-122.499
X111.491Y-122.5
X111.5Y-95.25
X111.5Y-115.25
X113.474Y-92.875
X113.5Y-92.0
X115.0Y-38.5
X116.238Y-73.808
X116.25Y-73.0
X117.04Y-73.75
X117.5Y-80.0
X118.0Y-63.0
X118.5Y-70.0
X119.0Y-108.5
X119.0Y-123.344
X119.645Y-107.8
X120.75Y-103.75
X121.0Y-97.0
X121.0Y-122.5
X121.0Y-126.0
X121.023Y-123.321
X121.159Y-90.949
X121.237Y-82.512
X122.0Y-79.5
X122.0Y-82.0
X122.458Y-80.162
X123.19Y-80.5
X123.734Y-120.275
X124.5Y-77.5
X124.5Y-116.5
X124.941Y-78.212
X125.0Y-84.5
X125.263Y-89.755
X125.75Y-78.5
X125.811Y-84.523
X126.5Y-134.0
X127.0Y-75.5
X127.0Y-103.75
X127.545Y-76.103
X127.961Y-86.539
X128.25Y-76.5
X129.0Y-86.728
X129.0Y-110.5
X129.428Y-95.009
X130.0Y-90.5
X130.25Y-61.0
X130.269Y-61.801
X130.405Y-91.405
X130.5Y-98.25
X131.0Y-131.5
X131.5Y-104.25
X132.5Y-106.5
X132.5Y-110.5
X132.529Y-114.369
X132.75Y-97.5
X133.072Y-87.251
X133.25Y-81.5
X134.0Y-104.25
X134.95Y-127.55
X135.0Y-91.0
X135.0Y-98.25
X135.25Y-42.25
X135.691Y-91.601
X135.898Y-94.923
X136.0Y-57.0
X136.002Y-74.641
X136.879Y-88.116
X137.0Y-108.5
X137.0Y-127.5
X137.8Y-108.509
X138.0Y-106.5
X138.5Y-118.5
X139.847Y-101.717
X140.233Y-94.557
X140.25Y-93.75
X140.309Y-85.508
X140.386Y-101.023
X141.0Y-84.834
X141.0Y-100.5
X141.0Y-109.5
X142.0Y-66.5
X142.0Y-106.0
X142.0Y-113.5
X142.142Y-55.053
X142.213Y-106.792
X142.244Y-115.681
X142.628Y-67.431
X142.959Y-55.104
X143.0Y-68.5
X143.0Y-107.0
X144.5Y-91.0
X144.619Y-91.792
X145.234Y-63.845
X145.25Y-63.0
X145.5Y-93.0
X146.0Y-45.75
X146.117Y-92.49
X146.993Y-108.829
X147.0Y-108.0
X147.719Y-124.5
X148.0Y-71.5
X148.0Y-90.0
X148.0Y-97.0
X148.04Y-58.496
X148.282Y-70.667
X148.356Y-96.271
X148.64Y-57.9
X148.771Y-89.306
X149.0Y-70.0
X149.0Y-88.5
X149.0Y-98.0
X149.656Y-98.713
X150.0Y-83.412
X150.0Y-99.5
X150.47Y-82.756
X150.6Y-102.773
X150.622Y-103.584
X151.5Y-122.0
X151.5Y-124.0
X151.5Y-126.5
X151.5Y-131.5
X151.595Y-73.699
X151.75Y-104.75
X152.0Y-129.5
X152.191Y-104.061
X152.39Y-73.6
X152.5Y-67.5
X152.5Y-122.5
X152.5Y-125.0
X152.526Y-48.526
X153.0Y-73.0
X153.0Y-104.0
X153.5Y-131.0
X153.75Y-53.0
X153.765Y-80.909
X153.841Y-124.5
X154.0Y-110.0
X154.188Y-110.83
X154.4Y-80.222
X155.0Y-79.5
X155.0Y-111.0
X155.765Y-79.203
X156.0Y-126.5
X156.0Y-127.978
X156.0Y-129.5
X156.5Y-78.88
X156.75Y-94.4
X156.963Y-95.21
X157.21Y-121.21
X157.701Y-69.933
X157.75Y-70.75
X157.75Y-94.978
X158.0Y-121.028
X158.0Y-127.978
X158.435Y-92.495
X158.5Y-67.5
X158.5Y-69.75
X158.75Y-91.75
X158.75Y-116.25
X159.877Y-96.295
X160.0Y-65.5
X160.0Y-133.0
X160.014Y-66.328
X160.168Y-104.168
X160.5Y-97.0
X160.5Y-98.726
X160.522Y-91.618
X160.579Y-92.489
X161.0Y-72.5
X161.0Y-98.0
X161.0Y-132.0
X161.5Y-99.5
X162.0Y-90.0
X162.0Y-96.19
X162.0Y-133.0
X162.012Y-104.178
X162.122Y-100.261
X162.135Y-89.155
X162.25Y-116.5
X162.5Y-131.5
X162.837Y-101.007
X163.0Y-72.5
X163.0Y-89.0
X163.0Y-95.0
X163.0Y-130.278
X163.5Y-133.0
X163.711Y-101.036
X164.0Y-131.5
X164.066Y-94.993
X164.5Y-130.278
X164.959Y-86.26
X165.0Y-95.0
X165.5Y-94.0
X166.359Y-93.792
X166.641Y-117.725
X166.75Y-103.5
X167.0Y-51.0
X167.25Y-104.25
X167.5Y-108.0
X167.503Y-108.814
X167.588Y-80.903
X168.497Y-81.685
X168.79Y-104.287
X168.989Y-103.478
X169.206Y-117.734
X169.5Y-87.5
X169.5Y-107.5
X169.712Y-80.91
X169.741Y-95.966
X169.741Y-103.75
X169.949Y-108.181
X170.0Y-67.5
X170.0Y-109.0
X170.24Y-125.5
X170.361Y-92.608
X170.496Y-90.912
X170.5Y-72.5
X170.5Y-90.0
X170.5Y-97.5
X170.517Y-96.559
X171.246Y-95.909
X171.3Y-132.5
X171.3Y-134.465
X171.5Y-65.5
X171.5Y-90.334
X171.5Y-99.0
X171.5Y-110.0
X171.551Y-66.304
X172.0Y-72.5
X172.0Y-125.039
X172.0Y-135.0
X172.113Y-108.233
X172.132Y-109.197
X172.17Y-99.649
X172.236Y-102.916
X172.5Y-104.0
X173.018Y-103.345
X173.5Y-96.5
X173.551Y-99.268
X173.957Y-100.165
X174.0Y-83.0
X174.0Y-86.5
X174.0Y-135.0
X174.5Y-82.5
X174.5Y-87.0
X174.5Y-109.0
X174.845Y-91.504
X175.832Y-121.5
X175.86Y-122.507
X176.0Y-107.0
X176.5Y-135.0
X176.75Y-125.0
X177.0Y-82.52
X177.419Y-88.0
X177.7Y-132.5
X177.7Y-134.3
X178.0Y-77.5
X178.496Y-99.835
X178.5Y-50.5
X178.5Y-105.4
X178.51Y-125.5
X178.599Y-103.642
X178.774Y-104.456
X178.79Y-100.693
X178.942Y-77.157
X179.0Y-88.0
X179.0Y-91.5
X179.5Y-82.5
X179.5Y-84.5
X179.5Y-87.0
X179.5Y-92.5
X179.559Y-101.082
X179.941Y-75.499
X180.0Y-76.5
X180.0Y-93.5
X180.0Y-96.5
X180.28Y-74.657
X180.392Y-62.319
X180.5Y-101.0
X180.5Y-102.5
X180.5Y-115.25
X180.936Y-101.73
X181.105Y-61.86
X181.258Y-94.657
X181.5Y-61.0
X181.746Y-60.01
X182.5Y-59.526
X183.588Y-97.76
X183.649Y-79.0
X183.939Y-96.961
X184.0Y-79.799
X184.26Y-96.226
X184.322Y-80.535
X185.0Y-77.5
X185.5Y-58.75
X185.674Y-83.067
X185.674Y-81.888
X185.749Y-78.086
X186.5Y-108.0
X186.5Y-115.75
X186.53Y-108.866
X186.604Y-68.528
X186.801Y-67.598
X187.0Y-66.5
X187.5Y-43.5
X187.5Y-101.0
X187.676Y-101.786
X188.0Y-55.0
X188.0Y-104.0
X188.378Y-54.244
X189.0Y-101.5
X189.149Y-102.388
X190.0Y-50.5
X190.0Y-109.5
X190.341Y-110.271
X190.591Y-104.641
X191.0Y-61.0
X191.572Y-104.641
X191.663Y-61.604
X192.107Y-105.24
X192.16Y-62.312
X192.772Y-66.6
X193.0Y-90.334
X193.297Y-67.204
X193.982Y-90.341
X194.0Y-56.75
X194.0Y-94.0
X194.344Y-104.614
X194.5Y-92.5
X194.5Y-102.0
X195.0Y-94.0
X195.0Y-104.0
X195.5Y-72.0
X195.5Y-73.0
X195.576Y-89.999
X196.0Y-111.716
X196.0Y-125.0
X196.461Y-69.617
X196.5Y-80.0
X197.15Y-70.11
X197.5Y-97.5
X197.5Y-99.0
X197.5Y-105.0
X197.7Y-91.275
X197.75Y-70.75
X197.906Y-98.232
X198.0Y-46.5
X198.25Y-129.0
X199.5Y-46.5
X199.5Y-48.0
X201.0Y-37.5
X201.0Y-125.478
X201.5Y-116.228
X204.028Y-91.173
X204.264Y-105.043
X205.25Y-129.0
X205.75Y-44.25
T4
X131.48Y-99.98
X131.48Y-102.52
X134.02Y-99.98
X134.02Y-102.52
X164.48Y-124.5
X167.02Y-124.5
T5
X114.5Y-51.42
X114.5Y-53.96
X114.5Y-56.5
X114.5Y-59.04
X117.04Y-51.42
X117.04Y-53.96
X117.04Y-56.5
X117.04Y-59.04
X199.453Y-58.395
X199.453Y-60.935
X199.453Y-63.475
X199.453Y-66.015
X199.46Y-75.96
X199.46Y-78.5
X199.46Y-81.04
X199.46Y-83.58
X201.993Y-58.395
X201.993Y-60.935
X201.993Y-63.475
X201.993Y-66.015
X202.0Y-75.96
X202.0Y-78.5
X202.0Y-81.04
X202.0Y-83.58
T6
X118.17Y-41.25
X118.17Y-43.79
X120.71Y-41.25
X120.71Y-43.79
X123.25Y-41.25
X123.25Y-43.79
X125.79Y-41.25
X125.79Y-43.79
X128.33Y-41.25
X128.33Y-43.79
X140.42Y-41.23
X140.42Y-43.77
X142.96Y-41.23
X142.96Y-43.77
X145.5Y-41.23
X145.5Y-43.77
X148.04Y-41.23
X148.04Y-43.77
X150.58Y-41.23
X150.58Y-43.77
T7
X114.991Y-120.0
X114.991Y-125.0
X115.241Y-85.0
X115.241Y-90.0
X156.491Y-44.526
X161.491Y-44.526
X167.991Y-44.478
X172.991Y-44.478
X179.491Y-44.493
X184.491Y-44.493
X190.991Y-44.478
X195.991Y-44.478
T3
X170.17Y-130.333G85X170.17Y-131.233
G05
X170.17Y-133.573G85X170.17Y-134.373
G05
X178.83Y-130.333G85X178.83Y-131.233
G05
X178.83Y-133.573G85X178.83Y-134.373
G05
M30
