G04 #@! TF.GenerationSoftware,KiCad,Pcbnew,8.0.5*
G04 #@! TF.CreationDate,2024-12-21T22:20:06-05:00*
G04 #@! TF.ProjectId,stm-midi-poc1,73746d2d-6d69-4646-992d-706f63312e6b,1*
G04 #@! TF.SameCoordinates,Original*
G04 #@! TF.FileFunction,Soldermask,Bot*
G04 #@! TF.FilePolarity,Negative*
%FSLAX46Y46*%
G04 Gerber Fmt 4.6, Leading zero omitted, Abs format (unit mm)*
G04 Created by KiCad (PCBNEW 8.0.5) date 2024-12-21 22:20:06*
%MOMM*%
%LPD*%
G01*
G04 APERTURE LIST*
%ADD10C,1.800000*%
%ADD11C,1.200000*%
%ADD12R,1.700000X1.700000*%
%ADD13O,1.700000X1.700000*%
%ADD14R,1.800000X1.800000*%
%ADD15C,0.900000*%
%ADD16C,2.200000*%
%ADD17O,1.000000X1.900000*%
%ADD18O,1.000000X1.800000*%
G04 APERTURE END LIST*
D10*
X131480000Y-102520000D03*
X131480000Y-99980000D03*
X134020000Y-102520000D03*
X134020000Y-99980000D03*
D11*
X167991181Y-44478476D03*
X172991181Y-44478476D03*
D12*
X199452646Y-58394637D03*
D13*
X201992646Y-58394637D03*
X199452646Y-60934637D03*
X201992646Y-60934637D03*
X199452646Y-63474637D03*
X201992646Y-63474637D03*
X199452646Y-66014637D03*
X201992646Y-66014637D03*
D14*
X128330000Y-41250000D03*
D10*
X128330000Y-43790000D03*
X125790000Y-41250000D03*
X125790000Y-43790000D03*
X123250000Y-41250000D03*
X123250000Y-43790000D03*
X120710000Y-41250000D03*
X120710000Y-43790000D03*
X118170000Y-41250000D03*
X118170000Y-43790000D03*
D15*
X204821181Y-115478476D03*
X204821181Y-112478476D03*
D11*
X114991181Y-125000000D03*
X114991181Y-120000000D03*
D16*
X202491181Y-131978476D03*
D11*
X115241181Y-90000000D03*
X115241181Y-85000000D03*
D12*
X202000000Y-83580000D03*
D13*
X199460000Y-83580000D03*
X202000000Y-81040000D03*
X199460000Y-81040000D03*
X202000000Y-78500000D03*
X199460000Y-78500000D03*
X202000000Y-75960000D03*
X199460000Y-75960000D03*
D17*
X170170000Y-130783476D03*
X178830000Y-130783476D03*
D18*
X178830000Y-133973476D03*
X170170000Y-133973476D03*
D14*
X164480000Y-124500000D03*
D10*
X167020000Y-124500000D03*
D14*
X140420000Y-43770000D03*
D10*
X140420000Y-41230000D03*
X142960000Y-43770000D03*
X142960000Y-41230000D03*
X145500000Y-43770000D03*
X145500000Y-41230000D03*
X148040000Y-43770000D03*
X148040000Y-41230000D03*
X150580000Y-43770000D03*
X150580000Y-41230000D03*
D16*
X111491179Y-131978478D03*
D11*
X190991181Y-44478472D03*
X195991181Y-44478472D03*
D12*
X117040000Y-59040000D03*
D13*
X114500000Y-59040000D03*
X117040000Y-56500000D03*
X114500000Y-56500000D03*
X117040000Y-53960000D03*
X114500000Y-53960000D03*
X117040000Y-51420000D03*
X114500000Y-51420000D03*
D11*
X156491181Y-44525976D03*
X161491181Y-44525976D03*
X179491181Y-44493096D03*
X184491181Y-44493096D03*
D16*
X202491181Y-40978476D03*
X111491181Y-40978476D03*
M02*
