%TF.GenerationSoftware,KiCad,Pcbnew,8.0.5*%
%TF.CreationDate,2024-12-21T22:21:37-05:00*%
%TF.ProjectId,stm-midi-poc1,73746d2d-6d69-4646-992d-706f63312e6b,1*%
%TF.SameCoordinates,Original*%
%TF.FileFunction,Drillmap*%
%TF.FilePolarity,Positive*%
%FSLAX45Y45*%
G04 Gerber Fmt 4.5, Leading zero omitted, Abs format (unit mm)*
G04 Created by KiCad (PCBNEW 8.0.5) date 2024-12-21 22:21:37*
%MOMM*%
%LPD*%
G01*
G04 APERTURE LIST*
%ADD10C,0.050000*%
%ADD11C,0.200000*%
%ADD12C,0.100000*%
%ADD13C,0.220000*%
G04 APERTURE END LIST*
D10*
X20699118Y-13197848D02*
X20699118Y-4097848D01*
X20249118Y-3647848D02*
X11149118Y-3647848D01*
X20249118Y-3647848D02*
G75*
G02*
X20699122Y-4097848I2J-450002D01*
G01*
X20249118Y-13647848D02*
X11149118Y-13647848D01*
X11149118Y-13647848D02*
G75*
G02*
X10699122Y-13197848I2J449998D01*
G01*
X10699118Y-4097848D02*
X10699118Y-13197848D01*
X20699118Y-13197848D02*
G75*
G02*
X20249118Y-13647848I-449998J-2D01*
G01*
X10699118Y-4097848D02*
G75*
G02*
X11149118Y-3647848I450002J-2D01*
G01*
D11*
D12*
X20437118Y-11202848D02*
X20527118Y-11292848D01*
X20527118Y-11202848D02*
X20437118Y-11292848D01*
X20437118Y-11502848D02*
X20527118Y-11592848D01*
X20527118Y-11502848D02*
X20437118Y-11592848D01*
D13*
X11259118Y-13197848D02*
G75*
G02*
X11039118Y-13197848I-110000J0D01*
G01*
X11039118Y-13197848D02*
G75*
G02*
X11259118Y-13197848I110000J0D01*
G01*
X11259118Y-4097848D02*
G75*
G02*
X11039118Y-4097848I-110000J0D01*
G01*
X11039118Y-4097848D02*
G75*
G02*
X11259118Y-4097848I110000J0D01*
G01*
X20359118Y-4097848D02*
G75*
G02*
X20139118Y-4097848I-110000J0D01*
G01*
X20139118Y-4097848D02*
G75*
G02*
X20359118Y-4097848I110000J0D01*
G01*
X20359118Y-13197848D02*
G75*
G02*
X20139118Y-13197848I-110000J0D01*
G01*
X20139118Y-13197848D02*
G75*
G02*
X20359118Y-13197848I110000J0D01*
G01*
D11*
X10957395Y-13961832D02*
X10957395Y-13761832D01*
X10957395Y-13761832D02*
X11005014Y-13761832D01*
X11005014Y-13761832D02*
X11033585Y-13771356D01*
X11033585Y-13771356D02*
X11052633Y-13790403D01*
X11052633Y-13790403D02*
X11062157Y-13809451D01*
X11062157Y-13809451D02*
X11071681Y-13847546D01*
X11071681Y-13847546D02*
X11071681Y-13876118D01*
X11071681Y-13876118D02*
X11062157Y-13914213D01*
X11062157Y-13914213D02*
X11052633Y-13933260D01*
X11052633Y-13933260D02*
X11033585Y-13952308D01*
X11033585Y-13952308D02*
X11005014Y-13961832D01*
X11005014Y-13961832D02*
X10957395Y-13961832D01*
X11157395Y-13961832D02*
X11157395Y-13828498D01*
X11157395Y-13866594D02*
X11166919Y-13847546D01*
X11166919Y-13847546D02*
X11176443Y-13838022D01*
X11176443Y-13838022D02*
X11195490Y-13828498D01*
X11195490Y-13828498D02*
X11214538Y-13828498D01*
X11281204Y-13961832D02*
X11281204Y-13828498D01*
X11281204Y-13761832D02*
X11271681Y-13771356D01*
X11271681Y-13771356D02*
X11281204Y-13780879D01*
X11281204Y-13780879D02*
X11290728Y-13771356D01*
X11290728Y-13771356D02*
X11281204Y-13761832D01*
X11281204Y-13761832D02*
X11281204Y-13780879D01*
X11405014Y-13961832D02*
X11385966Y-13952308D01*
X11385966Y-13952308D02*
X11376442Y-13933260D01*
X11376442Y-13933260D02*
X11376442Y-13761832D01*
X11509776Y-13961832D02*
X11490728Y-13952308D01*
X11490728Y-13952308D02*
X11481204Y-13933260D01*
X11481204Y-13933260D02*
X11481204Y-13761832D01*
X11738347Y-13961832D02*
X11738347Y-13761832D01*
X11738347Y-13761832D02*
X11805014Y-13904689D01*
X11805014Y-13904689D02*
X11871681Y-13761832D01*
X11871681Y-13761832D02*
X11871681Y-13961832D01*
X12052633Y-13961832D02*
X12052633Y-13857070D01*
X12052633Y-13857070D02*
X12043109Y-13838022D01*
X12043109Y-13838022D02*
X12024062Y-13828498D01*
X12024062Y-13828498D02*
X11985966Y-13828498D01*
X11985966Y-13828498D02*
X11966919Y-13838022D01*
X12052633Y-13952308D02*
X12033585Y-13961832D01*
X12033585Y-13961832D02*
X11985966Y-13961832D01*
X11985966Y-13961832D02*
X11966919Y-13952308D01*
X11966919Y-13952308D02*
X11957395Y-13933260D01*
X11957395Y-13933260D02*
X11957395Y-13914213D01*
X11957395Y-13914213D02*
X11966919Y-13895165D01*
X11966919Y-13895165D02*
X11985966Y-13885641D01*
X11985966Y-13885641D02*
X12033585Y-13885641D01*
X12033585Y-13885641D02*
X12052633Y-13876118D01*
X12147871Y-13828498D02*
X12147871Y-14028498D01*
X12147871Y-13838022D02*
X12166919Y-13828498D01*
X12166919Y-13828498D02*
X12205014Y-13828498D01*
X12205014Y-13828498D02*
X12224062Y-13838022D01*
X12224062Y-13838022D02*
X12233585Y-13847546D01*
X12233585Y-13847546D02*
X12243109Y-13866594D01*
X12243109Y-13866594D02*
X12243109Y-13923737D01*
X12243109Y-13923737D02*
X12233585Y-13942784D01*
X12233585Y-13942784D02*
X12224062Y-13952308D01*
X12224062Y-13952308D02*
X12205014Y-13961832D01*
X12205014Y-13961832D02*
X12166919Y-13961832D01*
X12166919Y-13961832D02*
X12147871Y-13952308D01*
X12328823Y-13942784D02*
X12338347Y-13952308D01*
X12338347Y-13952308D02*
X12328823Y-13961832D01*
X12328823Y-13961832D02*
X12319300Y-13952308D01*
X12319300Y-13952308D02*
X12328823Y-13942784D01*
X12328823Y-13942784D02*
X12328823Y-13961832D01*
X12328823Y-13838022D02*
X12338347Y-13847546D01*
X12338347Y-13847546D02*
X12328823Y-13857070D01*
X12328823Y-13857070D02*
X12319300Y-13847546D01*
X12319300Y-13847546D02*
X12328823Y-13838022D01*
X12328823Y-13838022D02*
X12328823Y-13857070D01*
D12*
X10606618Y-14245348D02*
X10696618Y-14335348D01*
X10696618Y-14245348D02*
X10606618Y-14335348D01*
D11*
X10995490Y-14181832D02*
X11014538Y-14181832D01*
X11014538Y-14181832D02*
X11033585Y-14191356D01*
X11033585Y-14191356D02*
X11043109Y-14200879D01*
X11043109Y-14200879D02*
X11052633Y-14219927D01*
X11052633Y-14219927D02*
X11062157Y-14258022D01*
X11062157Y-14258022D02*
X11062157Y-14305641D01*
X11062157Y-14305641D02*
X11052633Y-14343737D01*
X11052633Y-14343737D02*
X11043109Y-14362784D01*
X11043109Y-14362784D02*
X11033585Y-14372308D01*
X11033585Y-14372308D02*
X11014538Y-14381832D01*
X11014538Y-14381832D02*
X10995490Y-14381832D01*
X10995490Y-14381832D02*
X10976443Y-14372308D01*
X10976443Y-14372308D02*
X10966919Y-14362784D01*
X10966919Y-14362784D02*
X10957395Y-14343737D01*
X10957395Y-14343737D02*
X10947871Y-14305641D01*
X10947871Y-14305641D02*
X10947871Y-14258022D01*
X10947871Y-14258022D02*
X10957395Y-14219927D01*
X10957395Y-14219927D02*
X10966919Y-14200879D01*
X10966919Y-14200879D02*
X10976443Y-14191356D01*
X10976443Y-14191356D02*
X10995490Y-14181832D01*
X11147871Y-14362784D02*
X11157395Y-14372308D01*
X11157395Y-14372308D02*
X11147871Y-14381832D01*
X11147871Y-14381832D02*
X11138347Y-14372308D01*
X11138347Y-14372308D02*
X11147871Y-14362784D01*
X11147871Y-14362784D02*
X11147871Y-14381832D01*
X11252633Y-14381832D02*
X11290728Y-14381832D01*
X11290728Y-14381832D02*
X11309776Y-14372308D01*
X11309776Y-14372308D02*
X11319300Y-14362784D01*
X11319300Y-14362784D02*
X11338347Y-14334213D01*
X11338347Y-14334213D02*
X11347871Y-14296118D01*
X11347871Y-14296118D02*
X11347871Y-14219927D01*
X11347871Y-14219927D02*
X11338347Y-14200879D01*
X11338347Y-14200879D02*
X11328823Y-14191356D01*
X11328823Y-14191356D02*
X11309776Y-14181832D01*
X11309776Y-14181832D02*
X11271681Y-14181832D01*
X11271681Y-14181832D02*
X11252633Y-14191356D01*
X11252633Y-14191356D02*
X11243109Y-14200879D01*
X11243109Y-14200879D02*
X11233585Y-14219927D01*
X11233585Y-14219927D02*
X11233585Y-14267546D01*
X11233585Y-14267546D02*
X11243109Y-14286594D01*
X11243109Y-14286594D02*
X11252633Y-14296118D01*
X11252633Y-14296118D02*
X11271681Y-14305641D01*
X11271681Y-14305641D02*
X11309776Y-14305641D01*
X11309776Y-14305641D02*
X11328823Y-14296118D01*
X11328823Y-14296118D02*
X11338347Y-14286594D01*
X11338347Y-14286594D02*
X11347871Y-14267546D01*
X11471681Y-14181832D02*
X11490728Y-14181832D01*
X11490728Y-14181832D02*
X11509776Y-14191356D01*
X11509776Y-14191356D02*
X11519300Y-14200879D01*
X11519300Y-14200879D02*
X11528823Y-14219927D01*
X11528823Y-14219927D02*
X11538347Y-14258022D01*
X11538347Y-14258022D02*
X11538347Y-14305641D01*
X11538347Y-14305641D02*
X11528823Y-14343737D01*
X11528823Y-14343737D02*
X11519300Y-14362784D01*
X11519300Y-14362784D02*
X11509776Y-14372308D01*
X11509776Y-14372308D02*
X11490728Y-14381832D01*
X11490728Y-14381832D02*
X11471681Y-14381832D01*
X11471681Y-14381832D02*
X11452633Y-14372308D01*
X11452633Y-14372308D02*
X11443109Y-14362784D01*
X11443109Y-14362784D02*
X11433585Y-14343737D01*
X11433585Y-14343737D02*
X11424062Y-14305641D01*
X11424062Y-14305641D02*
X11424062Y-14258022D01*
X11424062Y-14258022D02*
X11433585Y-14219927D01*
X11433585Y-14219927D02*
X11443109Y-14200879D01*
X11443109Y-14200879D02*
X11452633Y-14191356D01*
X11452633Y-14191356D02*
X11471681Y-14181832D01*
X11662157Y-14181832D02*
X11681204Y-14181832D01*
X11681204Y-14181832D02*
X11700252Y-14191356D01*
X11700252Y-14191356D02*
X11709776Y-14200879D01*
X11709776Y-14200879D02*
X11719300Y-14219927D01*
X11719300Y-14219927D02*
X11728823Y-14258022D01*
X11728823Y-14258022D02*
X11728823Y-14305641D01*
X11728823Y-14305641D02*
X11719300Y-14343737D01*
X11719300Y-14343737D02*
X11709776Y-14362784D01*
X11709776Y-14362784D02*
X11700252Y-14372308D01*
X11700252Y-14372308D02*
X11681204Y-14381832D01*
X11681204Y-14381832D02*
X11662157Y-14381832D01*
X11662157Y-14381832D02*
X11643109Y-14372308D01*
X11643109Y-14372308D02*
X11633585Y-14362784D01*
X11633585Y-14362784D02*
X11624062Y-14343737D01*
X11624062Y-14343737D02*
X11614538Y-14305641D01*
X11614538Y-14305641D02*
X11614538Y-14258022D01*
X11614538Y-14258022D02*
X11624062Y-14219927D01*
X11624062Y-14219927D02*
X11633585Y-14200879D01*
X11633585Y-14200879D02*
X11643109Y-14191356D01*
X11643109Y-14191356D02*
X11662157Y-14181832D01*
X11814538Y-14381832D02*
X11814538Y-14248498D01*
X11814538Y-14267546D02*
X11824062Y-14258022D01*
X11824062Y-14258022D02*
X11843109Y-14248498D01*
X11843109Y-14248498D02*
X11871681Y-14248498D01*
X11871681Y-14248498D02*
X11890728Y-14258022D01*
X11890728Y-14258022D02*
X11900252Y-14277070D01*
X11900252Y-14277070D02*
X11900252Y-14381832D01*
X11900252Y-14277070D02*
X11909776Y-14258022D01*
X11909776Y-14258022D02*
X11928823Y-14248498D01*
X11928823Y-14248498D02*
X11957395Y-14248498D01*
X11957395Y-14248498D02*
X11976443Y-14258022D01*
X11976443Y-14258022D02*
X11985966Y-14277070D01*
X11985966Y-14277070D02*
X11985966Y-14381832D01*
X12081204Y-14381832D02*
X12081204Y-14248498D01*
X12081204Y-14267546D02*
X12090728Y-14258022D01*
X12090728Y-14258022D02*
X12109776Y-14248498D01*
X12109776Y-14248498D02*
X12138347Y-14248498D01*
X12138347Y-14248498D02*
X12157395Y-14258022D01*
X12157395Y-14258022D02*
X12166919Y-14277070D01*
X12166919Y-14277070D02*
X12166919Y-14381832D01*
X12166919Y-14277070D02*
X12176443Y-14258022D01*
X12176443Y-14258022D02*
X12195490Y-14248498D01*
X12195490Y-14248498D02*
X12224062Y-14248498D01*
X12224062Y-14248498D02*
X12243109Y-14258022D01*
X12243109Y-14258022D02*
X12252633Y-14277070D01*
X12252633Y-14277070D02*
X12252633Y-14381832D01*
X12643109Y-14172308D02*
X12471681Y-14429451D01*
X12900252Y-14181832D02*
X12919300Y-14181832D01*
X12919300Y-14181832D02*
X12938347Y-14191356D01*
X12938347Y-14191356D02*
X12947871Y-14200879D01*
X12947871Y-14200879D02*
X12957395Y-14219927D01*
X12957395Y-14219927D02*
X12966919Y-14258022D01*
X12966919Y-14258022D02*
X12966919Y-14305641D01*
X12966919Y-14305641D02*
X12957395Y-14343737D01*
X12957395Y-14343737D02*
X12947871Y-14362784D01*
X12947871Y-14362784D02*
X12938347Y-14372308D01*
X12938347Y-14372308D02*
X12919300Y-14381832D01*
X12919300Y-14381832D02*
X12900252Y-14381832D01*
X12900252Y-14381832D02*
X12881205Y-14372308D01*
X12881205Y-14372308D02*
X12871681Y-14362784D01*
X12871681Y-14362784D02*
X12862157Y-14343737D01*
X12862157Y-14343737D02*
X12852633Y-14305641D01*
X12852633Y-14305641D02*
X12852633Y-14258022D01*
X12852633Y-14258022D02*
X12862157Y-14219927D01*
X12862157Y-14219927D02*
X12871681Y-14200879D01*
X12871681Y-14200879D02*
X12881205Y-14191356D01*
X12881205Y-14191356D02*
X12900252Y-14181832D01*
X13052633Y-14362784D02*
X13062157Y-14372308D01*
X13062157Y-14372308D02*
X13052633Y-14381832D01*
X13052633Y-14381832D02*
X13043109Y-14372308D01*
X13043109Y-14372308D02*
X13052633Y-14362784D01*
X13052633Y-14362784D02*
X13052633Y-14381832D01*
X13185966Y-14181832D02*
X13205014Y-14181832D01*
X13205014Y-14181832D02*
X13224062Y-14191356D01*
X13224062Y-14191356D02*
X13233586Y-14200879D01*
X13233586Y-14200879D02*
X13243109Y-14219927D01*
X13243109Y-14219927D02*
X13252633Y-14258022D01*
X13252633Y-14258022D02*
X13252633Y-14305641D01*
X13252633Y-14305641D02*
X13243109Y-14343737D01*
X13243109Y-14343737D02*
X13233586Y-14362784D01*
X13233586Y-14362784D02*
X13224062Y-14372308D01*
X13224062Y-14372308D02*
X13205014Y-14381832D01*
X13205014Y-14381832D02*
X13185966Y-14381832D01*
X13185966Y-14381832D02*
X13166919Y-14372308D01*
X13166919Y-14372308D02*
X13157395Y-14362784D01*
X13157395Y-14362784D02*
X13147871Y-14343737D01*
X13147871Y-14343737D02*
X13138347Y-14305641D01*
X13138347Y-14305641D02*
X13138347Y-14258022D01*
X13138347Y-14258022D02*
X13147871Y-14219927D01*
X13147871Y-14219927D02*
X13157395Y-14200879D01*
X13157395Y-14200879D02*
X13166919Y-14191356D01*
X13166919Y-14191356D02*
X13185966Y-14181832D01*
X13319300Y-14181832D02*
X13443109Y-14181832D01*
X13443109Y-14181832D02*
X13376443Y-14258022D01*
X13376443Y-14258022D02*
X13405014Y-14258022D01*
X13405014Y-14258022D02*
X13424062Y-14267546D01*
X13424062Y-14267546D02*
X13433586Y-14277070D01*
X13433586Y-14277070D02*
X13443109Y-14296118D01*
X13443109Y-14296118D02*
X13443109Y-14343737D01*
X13443109Y-14343737D02*
X13433586Y-14362784D01*
X13433586Y-14362784D02*
X13424062Y-14372308D01*
X13424062Y-14372308D02*
X13405014Y-14381832D01*
X13405014Y-14381832D02*
X13347871Y-14381832D01*
X13347871Y-14381832D02*
X13328824Y-14372308D01*
X13328824Y-14372308D02*
X13319300Y-14362784D01*
X13624062Y-14181832D02*
X13528824Y-14181832D01*
X13528824Y-14181832D02*
X13519300Y-14277070D01*
X13519300Y-14277070D02*
X13528824Y-14267546D01*
X13528824Y-14267546D02*
X13547871Y-14258022D01*
X13547871Y-14258022D02*
X13595490Y-14258022D01*
X13595490Y-14258022D02*
X13614538Y-14267546D01*
X13614538Y-14267546D02*
X13624062Y-14277070D01*
X13624062Y-14277070D02*
X13633586Y-14296118D01*
X13633586Y-14296118D02*
X13633586Y-14343737D01*
X13633586Y-14343737D02*
X13624062Y-14362784D01*
X13624062Y-14362784D02*
X13614538Y-14372308D01*
X13614538Y-14372308D02*
X13595490Y-14381832D01*
X13595490Y-14381832D02*
X13547871Y-14381832D01*
X13547871Y-14381832D02*
X13528824Y-14372308D01*
X13528824Y-14372308D02*
X13519300Y-14362784D01*
X13805014Y-14248498D02*
X13805014Y-14381832D01*
X13757395Y-14172308D02*
X13709776Y-14315165D01*
X13709776Y-14315165D02*
X13833586Y-14315165D01*
X13900252Y-14181832D02*
X13900252Y-14219927D01*
X13976443Y-14181832D02*
X13976443Y-14219927D01*
X14271681Y-14458022D02*
X14262157Y-14448498D01*
X14262157Y-14448498D02*
X14243109Y-14419927D01*
X14243109Y-14419927D02*
X14233586Y-14400879D01*
X14233586Y-14400879D02*
X14224062Y-14372308D01*
X14224062Y-14372308D02*
X14214538Y-14324689D01*
X14214538Y-14324689D02*
X14214538Y-14286594D01*
X14214538Y-14286594D02*
X14224062Y-14238975D01*
X14224062Y-14238975D02*
X14233586Y-14210403D01*
X14233586Y-14210403D02*
X14243109Y-14191356D01*
X14243109Y-14191356D02*
X14262157Y-14162784D01*
X14262157Y-14162784D02*
X14271681Y-14153260D01*
X14338348Y-14200879D02*
X14347871Y-14191356D01*
X14347871Y-14191356D02*
X14366919Y-14181832D01*
X14366919Y-14181832D02*
X14414538Y-14181832D01*
X14414538Y-14181832D02*
X14433586Y-14191356D01*
X14433586Y-14191356D02*
X14443109Y-14200879D01*
X14443109Y-14200879D02*
X14452633Y-14219927D01*
X14452633Y-14219927D02*
X14452633Y-14238975D01*
X14452633Y-14238975D02*
X14443109Y-14267546D01*
X14443109Y-14267546D02*
X14328824Y-14381832D01*
X14328824Y-14381832D02*
X14452633Y-14381832D01*
X14690729Y-14381832D02*
X14690729Y-14181832D01*
X14776443Y-14381832D02*
X14776443Y-14277070D01*
X14776443Y-14277070D02*
X14766919Y-14258022D01*
X14766919Y-14258022D02*
X14747871Y-14248498D01*
X14747871Y-14248498D02*
X14719300Y-14248498D01*
X14719300Y-14248498D02*
X14700252Y-14258022D01*
X14700252Y-14258022D02*
X14690729Y-14267546D01*
X14900252Y-14381832D02*
X14881205Y-14372308D01*
X14881205Y-14372308D02*
X14871681Y-14362784D01*
X14871681Y-14362784D02*
X14862157Y-14343737D01*
X14862157Y-14343737D02*
X14862157Y-14286594D01*
X14862157Y-14286594D02*
X14871681Y-14267546D01*
X14871681Y-14267546D02*
X14881205Y-14258022D01*
X14881205Y-14258022D02*
X14900252Y-14248498D01*
X14900252Y-14248498D02*
X14928824Y-14248498D01*
X14928824Y-14248498D02*
X14947871Y-14258022D01*
X14947871Y-14258022D02*
X14957395Y-14267546D01*
X14957395Y-14267546D02*
X14966919Y-14286594D01*
X14966919Y-14286594D02*
X14966919Y-14343737D01*
X14966919Y-14343737D02*
X14957395Y-14362784D01*
X14957395Y-14362784D02*
X14947871Y-14372308D01*
X14947871Y-14372308D02*
X14928824Y-14381832D01*
X14928824Y-14381832D02*
X14900252Y-14381832D01*
X15081205Y-14381832D02*
X15062157Y-14372308D01*
X15062157Y-14372308D02*
X15052633Y-14353260D01*
X15052633Y-14353260D02*
X15052633Y-14181832D01*
X15233586Y-14372308D02*
X15214538Y-14381832D01*
X15214538Y-14381832D02*
X15176443Y-14381832D01*
X15176443Y-14381832D02*
X15157395Y-14372308D01*
X15157395Y-14372308D02*
X15147871Y-14353260D01*
X15147871Y-14353260D02*
X15147871Y-14277070D01*
X15147871Y-14277070D02*
X15157395Y-14258022D01*
X15157395Y-14258022D02*
X15176443Y-14248498D01*
X15176443Y-14248498D02*
X15214538Y-14248498D01*
X15214538Y-14248498D02*
X15233586Y-14258022D01*
X15233586Y-14258022D02*
X15243110Y-14277070D01*
X15243110Y-14277070D02*
X15243110Y-14296118D01*
X15243110Y-14296118D02*
X15147871Y-14315165D01*
X15319300Y-14372308D02*
X15338348Y-14381832D01*
X15338348Y-14381832D02*
X15376443Y-14381832D01*
X15376443Y-14381832D02*
X15395491Y-14372308D01*
X15395491Y-14372308D02*
X15405014Y-14353260D01*
X15405014Y-14353260D02*
X15405014Y-14343737D01*
X15405014Y-14343737D02*
X15395491Y-14324689D01*
X15395491Y-14324689D02*
X15376443Y-14315165D01*
X15376443Y-14315165D02*
X15347871Y-14315165D01*
X15347871Y-14315165D02*
X15328824Y-14305641D01*
X15328824Y-14305641D02*
X15319300Y-14286594D01*
X15319300Y-14286594D02*
X15319300Y-14277070D01*
X15319300Y-14277070D02*
X15328824Y-14258022D01*
X15328824Y-14258022D02*
X15347871Y-14248498D01*
X15347871Y-14248498D02*
X15376443Y-14248498D01*
X15376443Y-14248498D02*
X15395491Y-14258022D01*
X15471681Y-14458022D02*
X15481205Y-14448498D01*
X15481205Y-14448498D02*
X15500252Y-14419927D01*
X15500252Y-14419927D02*
X15509776Y-14400879D01*
X15509776Y-14400879D02*
X15519300Y-14372308D01*
X15519300Y-14372308D02*
X15528824Y-14324689D01*
X15528824Y-14324689D02*
X15528824Y-14286594D01*
X15528824Y-14286594D02*
X15519300Y-14238975D01*
X15519300Y-14238975D02*
X15509776Y-14210403D01*
X15509776Y-14210403D02*
X15500252Y-14191356D01*
X15500252Y-14191356D02*
X15481205Y-14162784D01*
X15481205Y-14162784D02*
X15471681Y-14153260D01*
X15833586Y-14458022D02*
X15824062Y-14448498D01*
X15824062Y-14448498D02*
X15805014Y-14419927D01*
X15805014Y-14419927D02*
X15795491Y-14400879D01*
X15795491Y-14400879D02*
X15785967Y-14372308D01*
X15785967Y-14372308D02*
X15776443Y-14324689D01*
X15776443Y-14324689D02*
X15776443Y-14286594D01*
X15776443Y-14286594D02*
X15785967Y-14238975D01*
X15785967Y-14238975D02*
X15795491Y-14210403D01*
X15795491Y-14210403D02*
X15805014Y-14191356D01*
X15805014Y-14191356D02*
X15824062Y-14162784D01*
X15824062Y-14162784D02*
X15833586Y-14153260D01*
X15909776Y-14248498D02*
X15909776Y-14381832D01*
X15909776Y-14267546D02*
X15919300Y-14258022D01*
X15919300Y-14258022D02*
X15938348Y-14248498D01*
X15938348Y-14248498D02*
X15966919Y-14248498D01*
X15966919Y-14248498D02*
X15985967Y-14258022D01*
X15985967Y-14258022D02*
X15995491Y-14277070D01*
X15995491Y-14277070D02*
X15995491Y-14381832D01*
X16119300Y-14381832D02*
X16100252Y-14372308D01*
X16100252Y-14372308D02*
X16090729Y-14362784D01*
X16090729Y-14362784D02*
X16081205Y-14343737D01*
X16081205Y-14343737D02*
X16081205Y-14286594D01*
X16081205Y-14286594D02*
X16090729Y-14267546D01*
X16090729Y-14267546D02*
X16100252Y-14258022D01*
X16100252Y-14258022D02*
X16119300Y-14248498D01*
X16119300Y-14248498D02*
X16147872Y-14248498D01*
X16147872Y-14248498D02*
X16166919Y-14258022D01*
X16166919Y-14258022D02*
X16176443Y-14267546D01*
X16176443Y-14267546D02*
X16185967Y-14286594D01*
X16185967Y-14286594D02*
X16185967Y-14343737D01*
X16185967Y-14343737D02*
X16176443Y-14362784D01*
X16176443Y-14362784D02*
X16166919Y-14372308D01*
X16166919Y-14372308D02*
X16147872Y-14381832D01*
X16147872Y-14381832D02*
X16119300Y-14381832D01*
X16243110Y-14248498D02*
X16319300Y-14248498D01*
X16271681Y-14181832D02*
X16271681Y-14353260D01*
X16271681Y-14353260D02*
X16281205Y-14372308D01*
X16281205Y-14372308D02*
X16300252Y-14381832D01*
X16300252Y-14381832D02*
X16319300Y-14381832D01*
X16538348Y-14248498D02*
X16538348Y-14448498D01*
X16538348Y-14258022D02*
X16557395Y-14248498D01*
X16557395Y-14248498D02*
X16595491Y-14248498D01*
X16595491Y-14248498D02*
X16614538Y-14258022D01*
X16614538Y-14258022D02*
X16624062Y-14267546D01*
X16624062Y-14267546D02*
X16633586Y-14286594D01*
X16633586Y-14286594D02*
X16633586Y-14343737D01*
X16633586Y-14343737D02*
X16624062Y-14362784D01*
X16624062Y-14362784D02*
X16614538Y-14372308D01*
X16614538Y-14372308D02*
X16595491Y-14381832D01*
X16595491Y-14381832D02*
X16557395Y-14381832D01*
X16557395Y-14381832D02*
X16538348Y-14372308D01*
X16747872Y-14381832D02*
X16728824Y-14372308D01*
X16728824Y-14372308D02*
X16719300Y-14353260D01*
X16719300Y-14353260D02*
X16719300Y-14181832D01*
X16909776Y-14381832D02*
X16909776Y-14277070D01*
X16909776Y-14277070D02*
X16900253Y-14258022D01*
X16900253Y-14258022D02*
X16881205Y-14248498D01*
X16881205Y-14248498D02*
X16843110Y-14248498D01*
X16843110Y-14248498D02*
X16824062Y-14258022D01*
X16909776Y-14372308D02*
X16890729Y-14381832D01*
X16890729Y-14381832D02*
X16843110Y-14381832D01*
X16843110Y-14381832D02*
X16824062Y-14372308D01*
X16824062Y-14372308D02*
X16814538Y-14353260D01*
X16814538Y-14353260D02*
X16814538Y-14334213D01*
X16814538Y-14334213D02*
X16824062Y-14315165D01*
X16824062Y-14315165D02*
X16843110Y-14305641D01*
X16843110Y-14305641D02*
X16890729Y-14305641D01*
X16890729Y-14305641D02*
X16909776Y-14296118D01*
X16976443Y-14248498D02*
X17052634Y-14248498D01*
X17005015Y-14181832D02*
X17005015Y-14353260D01*
X17005015Y-14353260D02*
X17014538Y-14372308D01*
X17014538Y-14372308D02*
X17033586Y-14381832D01*
X17033586Y-14381832D02*
X17052634Y-14381832D01*
X17195491Y-14372308D02*
X17176443Y-14381832D01*
X17176443Y-14381832D02*
X17138348Y-14381832D01*
X17138348Y-14381832D02*
X17119300Y-14372308D01*
X17119300Y-14372308D02*
X17109776Y-14353260D01*
X17109776Y-14353260D02*
X17109776Y-14277070D01*
X17109776Y-14277070D02*
X17119300Y-14258022D01*
X17119300Y-14258022D02*
X17138348Y-14248498D01*
X17138348Y-14248498D02*
X17176443Y-14248498D01*
X17176443Y-14248498D02*
X17195491Y-14258022D01*
X17195491Y-14258022D02*
X17205015Y-14277070D01*
X17205015Y-14277070D02*
X17205015Y-14296118D01*
X17205015Y-14296118D02*
X17109776Y-14315165D01*
X17376443Y-14381832D02*
X17376443Y-14181832D01*
X17376443Y-14372308D02*
X17357396Y-14381832D01*
X17357396Y-14381832D02*
X17319300Y-14381832D01*
X17319300Y-14381832D02*
X17300253Y-14372308D01*
X17300253Y-14372308D02*
X17290729Y-14362784D01*
X17290729Y-14362784D02*
X17281205Y-14343737D01*
X17281205Y-14343737D02*
X17281205Y-14286594D01*
X17281205Y-14286594D02*
X17290729Y-14267546D01*
X17290729Y-14267546D02*
X17300253Y-14258022D01*
X17300253Y-14258022D02*
X17319300Y-14248498D01*
X17319300Y-14248498D02*
X17357396Y-14248498D01*
X17357396Y-14248498D02*
X17376443Y-14258022D01*
X17452634Y-14458022D02*
X17462157Y-14448498D01*
X17462157Y-14448498D02*
X17481205Y-14419927D01*
X17481205Y-14419927D02*
X17490729Y-14400879D01*
X17490729Y-14400879D02*
X17500253Y-14372308D01*
X17500253Y-14372308D02*
X17509776Y-14324689D01*
X17509776Y-14324689D02*
X17509776Y-14286594D01*
X17509776Y-14286594D02*
X17500253Y-14238975D01*
X17500253Y-14238975D02*
X17490729Y-14210403D01*
X17490729Y-14210403D02*
X17481205Y-14191356D01*
X17481205Y-14191356D02*
X17462157Y-14162784D01*
X17462157Y-14162784D02*
X17452634Y-14153260D01*
X10696618Y-14554348D02*
G75*
G02*
X10496618Y-14554348I-100000J0D01*
G01*
X10496618Y-14554348D02*
G75*
G02*
X10696618Y-14554348I100000J0D01*
G01*
X10947871Y-14464879D02*
X10957395Y-14455356D01*
X10957395Y-14455356D02*
X10976443Y-14445832D01*
X10976443Y-14445832D02*
X11024062Y-14445832D01*
X11024062Y-14445832D02*
X11043109Y-14455356D01*
X11043109Y-14455356D02*
X11052633Y-14464879D01*
X11052633Y-14464879D02*
X11062157Y-14483927D01*
X11062157Y-14483927D02*
X11062157Y-14502975D01*
X11062157Y-14502975D02*
X11052633Y-14531546D01*
X11052633Y-14531546D02*
X10938347Y-14645832D01*
X10938347Y-14645832D02*
X11062157Y-14645832D01*
X11147871Y-14626784D02*
X11157395Y-14636308D01*
X11157395Y-14636308D02*
X11147871Y-14645832D01*
X11147871Y-14645832D02*
X11138347Y-14636308D01*
X11138347Y-14636308D02*
X11147871Y-14626784D01*
X11147871Y-14626784D02*
X11147871Y-14645832D01*
X11233585Y-14464879D02*
X11243109Y-14455356D01*
X11243109Y-14455356D02*
X11262157Y-14445832D01*
X11262157Y-14445832D02*
X11309776Y-14445832D01*
X11309776Y-14445832D02*
X11328823Y-14455356D01*
X11328823Y-14455356D02*
X11338347Y-14464879D01*
X11338347Y-14464879D02*
X11347871Y-14483927D01*
X11347871Y-14483927D02*
X11347871Y-14502975D01*
X11347871Y-14502975D02*
X11338347Y-14531546D01*
X11338347Y-14531546D02*
X11224062Y-14645832D01*
X11224062Y-14645832D02*
X11347871Y-14645832D01*
X11471681Y-14445832D02*
X11490728Y-14445832D01*
X11490728Y-14445832D02*
X11509776Y-14455356D01*
X11509776Y-14455356D02*
X11519300Y-14464879D01*
X11519300Y-14464879D02*
X11528823Y-14483927D01*
X11528823Y-14483927D02*
X11538347Y-14522022D01*
X11538347Y-14522022D02*
X11538347Y-14569641D01*
X11538347Y-14569641D02*
X11528823Y-14607737D01*
X11528823Y-14607737D02*
X11519300Y-14626784D01*
X11519300Y-14626784D02*
X11509776Y-14636308D01*
X11509776Y-14636308D02*
X11490728Y-14645832D01*
X11490728Y-14645832D02*
X11471681Y-14645832D01*
X11471681Y-14645832D02*
X11452633Y-14636308D01*
X11452633Y-14636308D02*
X11443109Y-14626784D01*
X11443109Y-14626784D02*
X11433585Y-14607737D01*
X11433585Y-14607737D02*
X11424062Y-14569641D01*
X11424062Y-14569641D02*
X11424062Y-14522022D01*
X11424062Y-14522022D02*
X11433585Y-14483927D01*
X11433585Y-14483927D02*
X11443109Y-14464879D01*
X11443109Y-14464879D02*
X11452633Y-14455356D01*
X11452633Y-14455356D02*
X11471681Y-14445832D01*
X11662157Y-14445832D02*
X11681204Y-14445832D01*
X11681204Y-14445832D02*
X11700252Y-14455356D01*
X11700252Y-14455356D02*
X11709776Y-14464879D01*
X11709776Y-14464879D02*
X11719300Y-14483927D01*
X11719300Y-14483927D02*
X11728823Y-14522022D01*
X11728823Y-14522022D02*
X11728823Y-14569641D01*
X11728823Y-14569641D02*
X11719300Y-14607737D01*
X11719300Y-14607737D02*
X11709776Y-14626784D01*
X11709776Y-14626784D02*
X11700252Y-14636308D01*
X11700252Y-14636308D02*
X11681204Y-14645832D01*
X11681204Y-14645832D02*
X11662157Y-14645832D01*
X11662157Y-14645832D02*
X11643109Y-14636308D01*
X11643109Y-14636308D02*
X11633585Y-14626784D01*
X11633585Y-14626784D02*
X11624062Y-14607737D01*
X11624062Y-14607737D02*
X11614538Y-14569641D01*
X11614538Y-14569641D02*
X11614538Y-14522022D01*
X11614538Y-14522022D02*
X11624062Y-14483927D01*
X11624062Y-14483927D02*
X11633585Y-14464879D01*
X11633585Y-14464879D02*
X11643109Y-14455356D01*
X11643109Y-14455356D02*
X11662157Y-14445832D01*
X11814538Y-14645832D02*
X11814538Y-14512498D01*
X11814538Y-14531546D02*
X11824062Y-14522022D01*
X11824062Y-14522022D02*
X11843109Y-14512498D01*
X11843109Y-14512498D02*
X11871681Y-14512498D01*
X11871681Y-14512498D02*
X11890728Y-14522022D01*
X11890728Y-14522022D02*
X11900252Y-14541070D01*
X11900252Y-14541070D02*
X11900252Y-14645832D01*
X11900252Y-14541070D02*
X11909776Y-14522022D01*
X11909776Y-14522022D02*
X11928823Y-14512498D01*
X11928823Y-14512498D02*
X11957395Y-14512498D01*
X11957395Y-14512498D02*
X11976443Y-14522022D01*
X11976443Y-14522022D02*
X11985966Y-14541070D01*
X11985966Y-14541070D02*
X11985966Y-14645832D01*
X12081204Y-14645832D02*
X12081204Y-14512498D01*
X12081204Y-14531546D02*
X12090728Y-14522022D01*
X12090728Y-14522022D02*
X12109776Y-14512498D01*
X12109776Y-14512498D02*
X12138347Y-14512498D01*
X12138347Y-14512498D02*
X12157395Y-14522022D01*
X12157395Y-14522022D02*
X12166919Y-14541070D01*
X12166919Y-14541070D02*
X12166919Y-14645832D01*
X12166919Y-14541070D02*
X12176443Y-14522022D01*
X12176443Y-14522022D02*
X12195490Y-14512498D01*
X12195490Y-14512498D02*
X12224062Y-14512498D01*
X12224062Y-14512498D02*
X12243109Y-14522022D01*
X12243109Y-14522022D02*
X12252633Y-14541070D01*
X12252633Y-14541070D02*
X12252633Y-14645832D01*
X12643109Y-14436308D02*
X12471681Y-14693451D01*
X12900252Y-14445832D02*
X12919300Y-14445832D01*
X12919300Y-14445832D02*
X12938347Y-14455356D01*
X12938347Y-14455356D02*
X12947871Y-14464879D01*
X12947871Y-14464879D02*
X12957395Y-14483927D01*
X12957395Y-14483927D02*
X12966919Y-14522022D01*
X12966919Y-14522022D02*
X12966919Y-14569641D01*
X12966919Y-14569641D02*
X12957395Y-14607737D01*
X12957395Y-14607737D02*
X12947871Y-14626784D01*
X12947871Y-14626784D02*
X12938347Y-14636308D01*
X12938347Y-14636308D02*
X12919300Y-14645832D01*
X12919300Y-14645832D02*
X12900252Y-14645832D01*
X12900252Y-14645832D02*
X12881205Y-14636308D01*
X12881205Y-14636308D02*
X12871681Y-14626784D01*
X12871681Y-14626784D02*
X12862157Y-14607737D01*
X12862157Y-14607737D02*
X12852633Y-14569641D01*
X12852633Y-14569641D02*
X12852633Y-14522022D01*
X12852633Y-14522022D02*
X12862157Y-14483927D01*
X12862157Y-14483927D02*
X12871681Y-14464879D01*
X12871681Y-14464879D02*
X12881205Y-14455356D01*
X12881205Y-14455356D02*
X12900252Y-14445832D01*
X13052633Y-14626784D02*
X13062157Y-14636308D01*
X13062157Y-14636308D02*
X13052633Y-14645832D01*
X13052633Y-14645832D02*
X13043109Y-14636308D01*
X13043109Y-14636308D02*
X13052633Y-14626784D01*
X13052633Y-14626784D02*
X13052633Y-14645832D01*
X13185966Y-14445832D02*
X13205014Y-14445832D01*
X13205014Y-14445832D02*
X13224062Y-14455356D01*
X13224062Y-14455356D02*
X13233586Y-14464879D01*
X13233586Y-14464879D02*
X13243109Y-14483927D01*
X13243109Y-14483927D02*
X13252633Y-14522022D01*
X13252633Y-14522022D02*
X13252633Y-14569641D01*
X13252633Y-14569641D02*
X13243109Y-14607737D01*
X13243109Y-14607737D02*
X13233586Y-14626784D01*
X13233586Y-14626784D02*
X13224062Y-14636308D01*
X13224062Y-14636308D02*
X13205014Y-14645832D01*
X13205014Y-14645832D02*
X13185966Y-14645832D01*
X13185966Y-14645832D02*
X13166919Y-14636308D01*
X13166919Y-14636308D02*
X13157395Y-14626784D01*
X13157395Y-14626784D02*
X13147871Y-14607737D01*
X13147871Y-14607737D02*
X13138347Y-14569641D01*
X13138347Y-14569641D02*
X13138347Y-14522022D01*
X13138347Y-14522022D02*
X13147871Y-14483927D01*
X13147871Y-14483927D02*
X13157395Y-14464879D01*
X13157395Y-14464879D02*
X13166919Y-14455356D01*
X13166919Y-14455356D02*
X13185966Y-14445832D01*
X13366919Y-14531546D02*
X13347871Y-14522022D01*
X13347871Y-14522022D02*
X13338347Y-14512498D01*
X13338347Y-14512498D02*
X13328824Y-14493451D01*
X13328824Y-14493451D02*
X13328824Y-14483927D01*
X13328824Y-14483927D02*
X13338347Y-14464879D01*
X13338347Y-14464879D02*
X13347871Y-14455356D01*
X13347871Y-14455356D02*
X13366919Y-14445832D01*
X13366919Y-14445832D02*
X13405014Y-14445832D01*
X13405014Y-14445832D02*
X13424062Y-14455356D01*
X13424062Y-14455356D02*
X13433586Y-14464879D01*
X13433586Y-14464879D02*
X13443109Y-14483927D01*
X13443109Y-14483927D02*
X13443109Y-14493451D01*
X13443109Y-14493451D02*
X13433586Y-14512498D01*
X13433586Y-14512498D02*
X13424062Y-14522022D01*
X13424062Y-14522022D02*
X13405014Y-14531546D01*
X13405014Y-14531546D02*
X13366919Y-14531546D01*
X13366919Y-14531546D02*
X13347871Y-14541070D01*
X13347871Y-14541070D02*
X13338347Y-14550594D01*
X13338347Y-14550594D02*
X13328824Y-14569641D01*
X13328824Y-14569641D02*
X13328824Y-14607737D01*
X13328824Y-14607737D02*
X13338347Y-14626784D01*
X13338347Y-14626784D02*
X13347871Y-14636308D01*
X13347871Y-14636308D02*
X13366919Y-14645832D01*
X13366919Y-14645832D02*
X13405014Y-14645832D01*
X13405014Y-14645832D02*
X13424062Y-14636308D01*
X13424062Y-14636308D02*
X13433586Y-14626784D01*
X13433586Y-14626784D02*
X13443109Y-14607737D01*
X13443109Y-14607737D02*
X13443109Y-14569641D01*
X13443109Y-14569641D02*
X13433586Y-14550594D01*
X13433586Y-14550594D02*
X13424062Y-14541070D01*
X13424062Y-14541070D02*
X13405014Y-14531546D01*
X13614538Y-14445832D02*
X13576443Y-14445832D01*
X13576443Y-14445832D02*
X13557395Y-14455356D01*
X13557395Y-14455356D02*
X13547871Y-14464879D01*
X13547871Y-14464879D02*
X13528824Y-14493451D01*
X13528824Y-14493451D02*
X13519300Y-14531546D01*
X13519300Y-14531546D02*
X13519300Y-14607737D01*
X13519300Y-14607737D02*
X13528824Y-14626784D01*
X13528824Y-14626784D02*
X13538347Y-14636308D01*
X13538347Y-14636308D02*
X13557395Y-14645832D01*
X13557395Y-14645832D02*
X13595490Y-14645832D01*
X13595490Y-14645832D02*
X13614538Y-14636308D01*
X13614538Y-14636308D02*
X13624062Y-14626784D01*
X13624062Y-14626784D02*
X13633586Y-14607737D01*
X13633586Y-14607737D02*
X13633586Y-14560118D01*
X13633586Y-14560118D02*
X13624062Y-14541070D01*
X13624062Y-14541070D02*
X13614538Y-14531546D01*
X13614538Y-14531546D02*
X13595490Y-14522022D01*
X13595490Y-14522022D02*
X13557395Y-14522022D01*
X13557395Y-14522022D02*
X13538347Y-14531546D01*
X13538347Y-14531546D02*
X13528824Y-14541070D01*
X13528824Y-14541070D02*
X13519300Y-14560118D01*
X13805014Y-14445832D02*
X13766919Y-14445832D01*
X13766919Y-14445832D02*
X13747871Y-14455356D01*
X13747871Y-14455356D02*
X13738347Y-14464879D01*
X13738347Y-14464879D02*
X13719300Y-14493451D01*
X13719300Y-14493451D02*
X13709776Y-14531546D01*
X13709776Y-14531546D02*
X13709776Y-14607737D01*
X13709776Y-14607737D02*
X13719300Y-14626784D01*
X13719300Y-14626784D02*
X13728824Y-14636308D01*
X13728824Y-14636308D02*
X13747871Y-14645832D01*
X13747871Y-14645832D02*
X13785967Y-14645832D01*
X13785967Y-14645832D02*
X13805014Y-14636308D01*
X13805014Y-14636308D02*
X13814538Y-14626784D01*
X13814538Y-14626784D02*
X13824062Y-14607737D01*
X13824062Y-14607737D02*
X13824062Y-14560118D01*
X13824062Y-14560118D02*
X13814538Y-14541070D01*
X13814538Y-14541070D02*
X13805014Y-14531546D01*
X13805014Y-14531546D02*
X13785967Y-14522022D01*
X13785967Y-14522022D02*
X13747871Y-14522022D01*
X13747871Y-14522022D02*
X13728824Y-14531546D01*
X13728824Y-14531546D02*
X13719300Y-14541070D01*
X13719300Y-14541070D02*
X13709776Y-14560118D01*
X13900252Y-14445832D02*
X13900252Y-14483927D01*
X13976443Y-14445832D02*
X13976443Y-14483927D01*
X14271681Y-14722022D02*
X14262157Y-14712498D01*
X14262157Y-14712498D02*
X14243109Y-14683927D01*
X14243109Y-14683927D02*
X14233586Y-14664879D01*
X14233586Y-14664879D02*
X14224062Y-14636308D01*
X14224062Y-14636308D02*
X14214538Y-14588689D01*
X14214538Y-14588689D02*
X14214538Y-14550594D01*
X14214538Y-14550594D02*
X14224062Y-14502975D01*
X14224062Y-14502975D02*
X14233586Y-14474403D01*
X14233586Y-14474403D02*
X14243109Y-14455356D01*
X14243109Y-14455356D02*
X14262157Y-14426784D01*
X14262157Y-14426784D02*
X14271681Y-14417260D01*
X14433586Y-14512498D02*
X14433586Y-14645832D01*
X14385967Y-14436308D02*
X14338348Y-14579165D01*
X14338348Y-14579165D02*
X14462157Y-14579165D01*
X14690729Y-14645832D02*
X14690729Y-14445832D01*
X14776443Y-14645832D02*
X14776443Y-14541070D01*
X14776443Y-14541070D02*
X14766919Y-14522022D01*
X14766919Y-14522022D02*
X14747871Y-14512498D01*
X14747871Y-14512498D02*
X14719300Y-14512498D01*
X14719300Y-14512498D02*
X14700252Y-14522022D01*
X14700252Y-14522022D02*
X14690729Y-14531546D01*
X14900252Y-14645832D02*
X14881205Y-14636308D01*
X14881205Y-14636308D02*
X14871681Y-14626784D01*
X14871681Y-14626784D02*
X14862157Y-14607737D01*
X14862157Y-14607737D02*
X14862157Y-14550594D01*
X14862157Y-14550594D02*
X14871681Y-14531546D01*
X14871681Y-14531546D02*
X14881205Y-14522022D01*
X14881205Y-14522022D02*
X14900252Y-14512498D01*
X14900252Y-14512498D02*
X14928824Y-14512498D01*
X14928824Y-14512498D02*
X14947871Y-14522022D01*
X14947871Y-14522022D02*
X14957395Y-14531546D01*
X14957395Y-14531546D02*
X14966919Y-14550594D01*
X14966919Y-14550594D02*
X14966919Y-14607737D01*
X14966919Y-14607737D02*
X14957395Y-14626784D01*
X14957395Y-14626784D02*
X14947871Y-14636308D01*
X14947871Y-14636308D02*
X14928824Y-14645832D01*
X14928824Y-14645832D02*
X14900252Y-14645832D01*
X15081205Y-14645832D02*
X15062157Y-14636308D01*
X15062157Y-14636308D02*
X15052633Y-14617260D01*
X15052633Y-14617260D02*
X15052633Y-14445832D01*
X15233586Y-14636308D02*
X15214538Y-14645832D01*
X15214538Y-14645832D02*
X15176443Y-14645832D01*
X15176443Y-14645832D02*
X15157395Y-14636308D01*
X15157395Y-14636308D02*
X15147871Y-14617260D01*
X15147871Y-14617260D02*
X15147871Y-14541070D01*
X15147871Y-14541070D02*
X15157395Y-14522022D01*
X15157395Y-14522022D02*
X15176443Y-14512498D01*
X15176443Y-14512498D02*
X15214538Y-14512498D01*
X15214538Y-14512498D02*
X15233586Y-14522022D01*
X15233586Y-14522022D02*
X15243110Y-14541070D01*
X15243110Y-14541070D02*
X15243110Y-14560118D01*
X15243110Y-14560118D02*
X15147871Y-14579165D01*
X15319300Y-14636308D02*
X15338348Y-14645832D01*
X15338348Y-14645832D02*
X15376443Y-14645832D01*
X15376443Y-14645832D02*
X15395491Y-14636308D01*
X15395491Y-14636308D02*
X15405014Y-14617260D01*
X15405014Y-14617260D02*
X15405014Y-14607737D01*
X15405014Y-14607737D02*
X15395491Y-14588689D01*
X15395491Y-14588689D02*
X15376443Y-14579165D01*
X15376443Y-14579165D02*
X15347871Y-14579165D01*
X15347871Y-14579165D02*
X15328824Y-14569641D01*
X15328824Y-14569641D02*
X15319300Y-14550594D01*
X15319300Y-14550594D02*
X15319300Y-14541070D01*
X15319300Y-14541070D02*
X15328824Y-14522022D01*
X15328824Y-14522022D02*
X15347871Y-14512498D01*
X15347871Y-14512498D02*
X15376443Y-14512498D01*
X15376443Y-14512498D02*
X15395491Y-14522022D01*
X15471681Y-14722022D02*
X15481205Y-14712498D01*
X15481205Y-14712498D02*
X15500252Y-14683927D01*
X15500252Y-14683927D02*
X15509776Y-14664879D01*
X15509776Y-14664879D02*
X15519300Y-14636308D01*
X15519300Y-14636308D02*
X15528824Y-14588689D01*
X15528824Y-14588689D02*
X15528824Y-14550594D01*
X15528824Y-14550594D02*
X15519300Y-14502975D01*
X15519300Y-14502975D02*
X15509776Y-14474403D01*
X15509776Y-14474403D02*
X15500252Y-14455356D01*
X15500252Y-14455356D02*
X15481205Y-14426784D01*
X15481205Y-14426784D02*
X15471681Y-14417260D01*
X15833586Y-14722022D02*
X15824062Y-14712498D01*
X15824062Y-14712498D02*
X15805014Y-14683927D01*
X15805014Y-14683927D02*
X15795491Y-14664879D01*
X15795491Y-14664879D02*
X15785967Y-14636308D01*
X15785967Y-14636308D02*
X15776443Y-14588689D01*
X15776443Y-14588689D02*
X15776443Y-14550594D01*
X15776443Y-14550594D02*
X15785967Y-14502975D01*
X15785967Y-14502975D02*
X15795491Y-14474403D01*
X15795491Y-14474403D02*
X15805014Y-14455356D01*
X15805014Y-14455356D02*
X15824062Y-14426784D01*
X15824062Y-14426784D02*
X15833586Y-14417260D01*
X15909776Y-14512498D02*
X15909776Y-14645832D01*
X15909776Y-14531546D02*
X15919300Y-14522022D01*
X15919300Y-14522022D02*
X15938348Y-14512498D01*
X15938348Y-14512498D02*
X15966919Y-14512498D01*
X15966919Y-14512498D02*
X15985967Y-14522022D01*
X15985967Y-14522022D02*
X15995491Y-14541070D01*
X15995491Y-14541070D02*
X15995491Y-14645832D01*
X16119300Y-14645832D02*
X16100252Y-14636308D01*
X16100252Y-14636308D02*
X16090729Y-14626784D01*
X16090729Y-14626784D02*
X16081205Y-14607737D01*
X16081205Y-14607737D02*
X16081205Y-14550594D01*
X16081205Y-14550594D02*
X16090729Y-14531546D01*
X16090729Y-14531546D02*
X16100252Y-14522022D01*
X16100252Y-14522022D02*
X16119300Y-14512498D01*
X16119300Y-14512498D02*
X16147872Y-14512498D01*
X16147872Y-14512498D02*
X16166919Y-14522022D01*
X16166919Y-14522022D02*
X16176443Y-14531546D01*
X16176443Y-14531546D02*
X16185967Y-14550594D01*
X16185967Y-14550594D02*
X16185967Y-14607737D01*
X16185967Y-14607737D02*
X16176443Y-14626784D01*
X16176443Y-14626784D02*
X16166919Y-14636308D01*
X16166919Y-14636308D02*
X16147872Y-14645832D01*
X16147872Y-14645832D02*
X16119300Y-14645832D01*
X16243110Y-14512498D02*
X16319300Y-14512498D01*
X16271681Y-14445832D02*
X16271681Y-14617260D01*
X16271681Y-14617260D02*
X16281205Y-14636308D01*
X16281205Y-14636308D02*
X16300252Y-14645832D01*
X16300252Y-14645832D02*
X16319300Y-14645832D01*
X16538348Y-14512498D02*
X16538348Y-14712498D01*
X16538348Y-14522022D02*
X16557395Y-14512498D01*
X16557395Y-14512498D02*
X16595491Y-14512498D01*
X16595491Y-14512498D02*
X16614538Y-14522022D01*
X16614538Y-14522022D02*
X16624062Y-14531546D01*
X16624062Y-14531546D02*
X16633586Y-14550594D01*
X16633586Y-14550594D02*
X16633586Y-14607737D01*
X16633586Y-14607737D02*
X16624062Y-14626784D01*
X16624062Y-14626784D02*
X16614538Y-14636308D01*
X16614538Y-14636308D02*
X16595491Y-14645832D01*
X16595491Y-14645832D02*
X16557395Y-14645832D01*
X16557395Y-14645832D02*
X16538348Y-14636308D01*
X16747872Y-14645832D02*
X16728824Y-14636308D01*
X16728824Y-14636308D02*
X16719300Y-14617260D01*
X16719300Y-14617260D02*
X16719300Y-14445832D01*
X16909776Y-14645832D02*
X16909776Y-14541070D01*
X16909776Y-14541070D02*
X16900253Y-14522022D01*
X16900253Y-14522022D02*
X16881205Y-14512498D01*
X16881205Y-14512498D02*
X16843110Y-14512498D01*
X16843110Y-14512498D02*
X16824062Y-14522022D01*
X16909776Y-14636308D02*
X16890729Y-14645832D01*
X16890729Y-14645832D02*
X16843110Y-14645832D01*
X16843110Y-14645832D02*
X16824062Y-14636308D01*
X16824062Y-14636308D02*
X16814538Y-14617260D01*
X16814538Y-14617260D02*
X16814538Y-14598213D01*
X16814538Y-14598213D02*
X16824062Y-14579165D01*
X16824062Y-14579165D02*
X16843110Y-14569641D01*
X16843110Y-14569641D02*
X16890729Y-14569641D01*
X16890729Y-14569641D02*
X16909776Y-14560118D01*
X16976443Y-14512498D02*
X17052634Y-14512498D01*
X17005015Y-14445832D02*
X17005015Y-14617260D01*
X17005015Y-14617260D02*
X17014538Y-14636308D01*
X17014538Y-14636308D02*
X17033586Y-14645832D01*
X17033586Y-14645832D02*
X17052634Y-14645832D01*
X17195491Y-14636308D02*
X17176443Y-14645832D01*
X17176443Y-14645832D02*
X17138348Y-14645832D01*
X17138348Y-14645832D02*
X17119300Y-14636308D01*
X17119300Y-14636308D02*
X17109776Y-14617260D01*
X17109776Y-14617260D02*
X17109776Y-14541070D01*
X17109776Y-14541070D02*
X17119300Y-14522022D01*
X17119300Y-14522022D02*
X17138348Y-14512498D01*
X17138348Y-14512498D02*
X17176443Y-14512498D01*
X17176443Y-14512498D02*
X17195491Y-14522022D01*
X17195491Y-14522022D02*
X17205015Y-14541070D01*
X17205015Y-14541070D02*
X17205015Y-14560118D01*
X17205015Y-14560118D02*
X17109776Y-14579165D01*
X17376443Y-14645832D02*
X17376443Y-14445832D01*
X17376443Y-14636308D02*
X17357396Y-14645832D01*
X17357396Y-14645832D02*
X17319300Y-14645832D01*
X17319300Y-14645832D02*
X17300253Y-14636308D01*
X17300253Y-14636308D02*
X17290729Y-14626784D01*
X17290729Y-14626784D02*
X17281205Y-14607737D01*
X17281205Y-14607737D02*
X17281205Y-14550594D01*
X17281205Y-14550594D02*
X17290729Y-14531546D01*
X17290729Y-14531546D02*
X17300253Y-14522022D01*
X17300253Y-14522022D02*
X17319300Y-14512498D01*
X17319300Y-14512498D02*
X17357396Y-14512498D01*
X17357396Y-14512498D02*
X17376443Y-14522022D01*
X17452634Y-14722022D02*
X17462157Y-14712498D01*
X17462157Y-14712498D02*
X17481205Y-14683927D01*
X17481205Y-14683927D02*
X17490729Y-14664879D01*
X17490729Y-14664879D02*
X17500253Y-14636308D01*
X17500253Y-14636308D02*
X17509776Y-14588689D01*
X17509776Y-14588689D02*
X17509776Y-14550594D01*
X17509776Y-14550594D02*
X17500253Y-14502975D01*
X17500253Y-14502975D02*
X17490729Y-14474403D01*
X17490729Y-14474403D02*
X17481205Y-14455356D01*
X17481205Y-14455356D02*
X17462157Y-14426784D01*
X17462157Y-14426784D02*
X17452634Y-14417260D01*
M02*
