M48
METRIC,TZ
T1C0.250
T2C0.300
T3C0.600
T4C1.000
T5C1.200
T6C1.200
%
G90
G05
T1
X169500Y-92542
T2
X111491Y-123500
X111500Y-121500
X111500Y-122500
X111741Y-86500
X111741Y-87500
X111741Y-88500
X112965Y-107750
X113000Y-97651
X114991Y-99666
X114991Y-103666
X115000Y-100500
X115000Y-104500
X118000Y-63000
X118500Y-70000
X118500Y-122500
X119000Y-108500
X119645Y-107800
X121000Y-127000
X121237Y-82512
X122000Y-80500
X122000Y-82000
X122849Y-80293
X123190Y-79310
X123734Y-120275
X124149Y-79356
X124500Y-78500
X124500Y-116500
X125263Y-89755
X125263Y-91000
X125529Y-78226
X125730Y-77270
X127000Y-77500
X127961Y-86539
X128000Y-77500
X128066Y-76119
X128270Y-75230
X129000Y-86728
X129000Y-110500
X129428Y-95009
X129551Y-75457
X130500Y-75500
X131000Y-131500
X132000Y-65000
X132000Y-99000
X132000Y-106500
X132500Y-74500
X132500Y-110500
X132514Y-73632
X132529Y-114369
X132739Y-64081
X133072Y-87251
X133349Y-63160
X134500Y-99250
X134950Y-127550
X135006Y-61814
X135050Y-60950
X135841Y-59332
X135890Y-58500
X135898Y-94923
X136879Y-88116
X137000Y-127500
X137495Y-55901
X137500Y-55000
X137500Y-87500
X137500Y-108500
X137934Y-85434
X138500Y-86000
X138500Y-106500
X138500Y-108500
X138500Y-118500
X140309Y-85508
X140317Y-101049
X141000Y-65000
X141000Y-84834
X141000Y-100500
X141000Y-109500
X141840Y-64967
X142000Y-66500
X142000Y-106000
X142000Y-107000
X142000Y-113500
X142244Y-115681
X142628Y-67431
X143000Y-68500
X143000Y-107000
X144500Y-91000
X144619Y-91792
X145500Y-93000
X146117Y-92490
X146993Y-108829
X147000Y-108000
X147719Y-124500
X148000Y-71500
X148000Y-90000
X148000Y-97000
X148282Y-70667
X148356Y-96271
X148771Y-89306
X149000Y-70000
X149000Y-88500
X149000Y-98000
X149656Y-98713
X150000Y-83412
X150000Y-99500
X150269Y-82419
X151160Y-95000
X151186Y-73500
X151283Y-102773
X151500Y-122000
X151500Y-124000
X151500Y-126500
X151500Y-131500
X151665Y-101954
X151723Y-72872
X151786Y-94400
X151945Y-92453
X152000Y-129500
X152300Y-72247
X152500Y-102000
X152500Y-122500
X152500Y-125000
X152545Y-91814
X153000Y-41000
X153000Y-81500
X153500Y-131000
X153765Y-80909
X153841Y-124500
X154000Y-110000
X154000Y-111000
X154400Y-80222
X154681Y-67853
X155000Y-79500
X155000Y-111000
X155500Y-68500
X155774Y-80017
X156000Y-126500
X156000Y-127978
X156000Y-129500
X156500Y-78500
X157085Y-93831
X157210Y-121210
X157500Y-78500
X157924Y-93762
X158000Y-121028
X158000Y-127978
X158500Y-73500
X158500Y-74500
X158761Y-93778
X159877Y-96295
X160000Y-133000
X160500Y-46500
X160500Y-97000
X160500Y-98726
X160500Y-104500
X160522Y-91618
X160579Y-92489
X161000Y-72500
X161000Y-98000
X161000Y-132000
X161500Y-46500
X161500Y-99500
X162000Y-90000
X162000Y-96190
X162000Y-104500
X162000Y-133000
X162122Y-100261
X162135Y-89155
X162500Y-46500
X162500Y-131500
X162837Y-101007
X163000Y-72500
X163000Y-89000
X163000Y-95000
X163000Y-130278
X163500Y-46500
X163500Y-133000
X163711Y-101036
X164000Y-131500
X164066Y-94993
X164500Y-41026
X164500Y-130278
X164959Y-86260
X165000Y-95000
X165500Y-94000
X166359Y-93792
X166641Y-117725
X167500Y-108000
X167503Y-108814
X167676Y-67705
X168500Y-80909
X168665Y-103377
X168790Y-104287
X169000Y-67000
X169206Y-117734
X169500Y-103500
X169500Y-107500
X169741Y-95966
X169891Y-108415
X170000Y-87500
X170000Y-109500
X170361Y-92608
X170496Y-90912
X170500Y-48000
X170500Y-72500
X170500Y-90000
X170500Y-97500
X170500Y-125000
X170517Y-96559
X171246Y-95909
X171300Y-132500
X171300Y-134465
X171500Y-90334
X171500Y-99000
X171500Y-110000
X172000Y-135000
X172113Y-108233
X172132Y-109197
X172170Y-99649
X172236Y-102916
X172500Y-72500
X172500Y-104000
X173018Y-103345
X173500Y-96500
X173551Y-99268
X173957Y-100165
X174000Y-83000
X174000Y-86500
X174000Y-135000
X174500Y-82500
X174500Y-87000
X174500Y-109000
X174845Y-91504
X175832Y-121500
X175860Y-122507
X176000Y-40978
X176000Y-107000
X176500Y-135000
X176997Y-111633
X177000Y-82520
X177250Y-66750
X177419Y-88000
X177600Y-110600
X177700Y-132500
X177700Y-134300
X177760Y-111392
X178000Y-77500
X178496Y-99835
X178500Y-53500
X178500Y-54500
X178500Y-105400
X178500Y-125000
X178599Y-103642
X178774Y-104456
X178790Y-100693
X178942Y-77157
X179000Y-88000
X179000Y-91500
X179500Y-82500
X179500Y-84500
X179500Y-87000
X179500Y-92500
X179559Y-101082
X179941Y-75499
X180000Y-76500
X180000Y-93500
X180000Y-96500
X180280Y-74657
X180392Y-62319
X180500Y-101000
X180500Y-102500
X180936Y-101730
X181105Y-61860
X181258Y-94657
X181500Y-61000
X181746Y-60010
X182500Y-59526
X183588Y-97760
X183649Y-79000
X183939Y-96961
X184000Y-79799
X184260Y-96226
X184322Y-80535
X185000Y-77500
X185674Y-83067
X185674Y-81888
X185749Y-78086
X186500Y-108000
X186530Y-108866
X186604Y-68528
X186801Y-67598
X187000Y-66500
X187500Y-40993
X187500Y-101000
X187676Y-101786
X188000Y-55000
X188000Y-104000
X188378Y-54244
X189000Y-53500
X189000Y-101500
X189149Y-102388
X189244Y-111345
X189720Y-112000
X190000Y-109500
X190000Y-111000
X190341Y-110271
X190591Y-104641
X191000Y-61000
X191572Y-104641
X191663Y-61604
X192000Y-66000
X192107Y-105240
X192772Y-66600
X193000Y-90334
X193297Y-67204
X193982Y-90341
X194000Y-94000
X194344Y-104614
X194500Y-41000
X194500Y-92500
X194500Y-102000
X195000Y-94000
X195000Y-104000
X195500Y-72000
X195500Y-73000
X195576Y-89999
X196000Y-111716
X196000Y-125000
X196500Y-80000
X197500Y-97500
X197500Y-99000
X197500Y-105000
X197700Y-91275
X197906Y-98232
X199000Y-67500
X201000Y-125478
X201500Y-116228
X204028Y-91173
X204264Y-105043
T4
X114500Y-51420
X114500Y-53960
X114500Y-56500
X114500Y-59040
X114500Y-66700
X114500Y-69240
X114500Y-71780
X114500Y-74320
X117040Y-51420
X117040Y-53960
X117040Y-56500
X117040Y-59040
X140425Y-41199
X142965Y-41199
X145505Y-41199
X148045Y-41199
X150585Y-41199
X187180Y-132000
X189720Y-132000
X192260Y-132000
X194800Y-132000
X199460Y-75960
X199460Y-78500
X199460Y-81040
X199460Y-83580
X202000Y-58420
X202000Y-60960
X202000Y-63500
X202000Y-66040
X202000Y-68580
X202000Y-75960
X202000Y-78500
X202000Y-81040
X202000Y-83580
T5
X118110Y-41230
X118110Y-43770
X120650Y-41230
X120650Y-43770
X123190Y-41230
X123190Y-43770
X125730Y-41230
X125730Y-43770
X128270Y-41230
X128270Y-43770
X130810Y-41230
X130810Y-43770
X133350Y-41230
X133350Y-43770
X135890Y-41230
X135890Y-43770
T6
X114991Y-120000
X114991Y-125000
X115241Y-85000
X115241Y-90000
X156491Y-44526
X161491Y-44526
X167991Y-44478
X172991Y-44478
X179491Y-44493
X184491Y-44493
X190991Y-44478
X195991Y-44478
T3
G00X170170Y-130333
M15
G01X170170Y-131233
M16
G05
G00X170170Y-133573
M15
G01X170170Y-134373
M16
G05
G00X178830Y-130333
M15
G01X178830Y-131233
M16
G05
G00X178830Y-133573
M15
G01X178830Y-134373
M16
G05
M30
