%TF.GenerationSoftware,KiCad,Pcbnew,8.0.5*%
%TF.CreationDate,2024-10-26T11:24:14-04:00*%
%TF.ProjectId,stm-midi-poc1,73746d2d-6d69-4646-992d-706f63312e6b,1*%
%TF.SameCoordinates,Original*%
%TF.FileFunction,Other,Comment*%
%FSLAX46Y46*%
G04 Gerber Fmt 4.6, Leading zero omitted, Abs format (unit mm)*
G04 Created by KiCad (PCBNEW 8.0.5) date 2024-10-26 11:24:14*
%MOMM*%
%LPD*%
G01*
G04 APERTURE LIST*
%ADD10C,0.400000*%
%ADD11C,0.200000*%
%ADD12C,0.150000*%
%ADD13C,0.300000*%
G04 APERTURE END LIST*
D10*
%TO.C,CN4*%
X168191181Y-44478476D02*
G75*
G02*
X167791181Y-44478476I-200000J0D01*
G01*
X167791181Y-44478476D02*
G75*
G02*
X168191181Y-44478476I200000J0D01*
G01*
X173191181Y-44478476D02*
G75*
G02*
X172791181Y-44478476I-200000J0D01*
G01*
X172791181Y-44478476D02*
G75*
G02*
X173191181Y-44478476I200000J0D01*
G01*
D11*
%TO.C,U8*%
X135200000Y-128540000D02*
G75*
G02*
X135000000Y-128540000I-100000J0D01*
G01*
X135000000Y-128540000D02*
G75*
G02*
X135200000Y-128540000I100000J0D01*
G01*
D10*
%TO.C,CN5*%
X115191181Y-120000000D02*
G75*
G02*
X114791181Y-120000000I-200000J0D01*
G01*
X114791181Y-120000000D02*
G75*
G02*
X115191181Y-120000000I200000J0D01*
G01*
X115191181Y-125000000D02*
G75*
G02*
X114791181Y-125000000I-200000J0D01*
G01*
X114791181Y-125000000D02*
G75*
G02*
X115191181Y-125000000I200000J0D01*
G01*
D12*
%TO.C,U3*%
X131811181Y-91778476D02*
G75*
G02*
X131671181Y-91778476I-70000J0D01*
G01*
X131671181Y-91778476D02*
G75*
G02*
X131811181Y-91778476I70000J0D01*
G01*
%TO.C,H3*%
X204691181Y-131978476D02*
G75*
G02*
X200291181Y-131978476I-2200000J0D01*
G01*
X200291181Y-131978476D02*
G75*
G02*
X204691181Y-131978476I2200000J0D01*
G01*
D10*
%TO.C,CN6*%
X115441181Y-85000000D02*
G75*
G02*
X115041181Y-85000000I-200000J0D01*
G01*
X115041181Y-85000000D02*
G75*
G02*
X115441181Y-85000000I200000J0D01*
G01*
X115441181Y-90000000D02*
G75*
G02*
X115041181Y-90000000I-200000J0D01*
G01*
X115041181Y-90000000D02*
G75*
G02*
X115441181Y-90000000I200000J0D01*
G01*
D12*
%TO.C,H4*%
X113691179Y-131978478D02*
G75*
G02*
X109291179Y-131978478I-2200000J0D01*
G01*
X109291179Y-131978478D02*
G75*
G02*
X113691179Y-131978478I2200000J0D01*
G01*
D10*
%TO.C,CN1*%
X191191181Y-44478472D02*
G75*
G02*
X190791181Y-44478472I-200000J0D01*
G01*
X190791181Y-44478472D02*
G75*
G02*
X191191181Y-44478472I200000J0D01*
G01*
X196191181Y-44478472D02*
G75*
G02*
X195791181Y-44478472I-200000J0D01*
G01*
X195791181Y-44478472D02*
G75*
G02*
X196191181Y-44478472I200000J0D01*
G01*
D13*
%TO.C,U6*%
X162451181Y-54925976D02*
G75*
G02*
X162151181Y-54925976I-150000J0D01*
G01*
X162151181Y-54925976D02*
G75*
G02*
X162451181Y-54925976I150000J0D01*
G01*
%TO.C,U7*%
X175451181Y-54878476D02*
G75*
G02*
X175151181Y-54878476I-150000J0D01*
G01*
X175151181Y-54878476D02*
G75*
G02*
X175451181Y-54878476I150000J0D01*
G01*
D10*
%TO.C,CN2*%
X156691181Y-44525976D02*
G75*
G02*
X156291181Y-44525976I-200000J0D01*
G01*
X156291181Y-44525976D02*
G75*
G02*
X156691181Y-44525976I200000J0D01*
G01*
X161691181Y-44525976D02*
G75*
G02*
X161291181Y-44525976I-200000J0D01*
G01*
X161291181Y-44525976D02*
G75*
G02*
X161691181Y-44525976I200000J0D01*
G01*
%TO.C,CN3*%
X179691181Y-44493096D02*
G75*
G02*
X179291181Y-44493096I-200000J0D01*
G01*
X179291181Y-44493096D02*
G75*
G02*
X179691181Y-44493096I200000J0D01*
G01*
X184691181Y-44493096D02*
G75*
G02*
X184291181Y-44493096I-200000J0D01*
G01*
X184291181Y-44493096D02*
G75*
G02*
X184691181Y-44493096I200000J0D01*
G01*
D12*
%TO.C,H2*%
X204691181Y-40978476D02*
G75*
G02*
X200291181Y-40978476I-2200000J0D01*
G01*
X200291181Y-40978476D02*
G75*
G02*
X204691181Y-40978476I2200000J0D01*
G01*
%TO.C,H1*%
X113691181Y-40978476D02*
G75*
G02*
X109291181Y-40978476I-2200000J0D01*
G01*
X109291181Y-40978476D02*
G75*
G02*
X113691181Y-40978476I2200000J0D01*
G01*
%TD*%
M02*
