M48
; DRILL file {KiCad 8.0.5} date 2024-12-21T22:45:07-0500
; FORMAT={-:-/ absolute / inch / decimal}
; #@! TF.CreationDate,2024-12-21T22:45:07-05:00
; #@! TF.GenerationSoftware,Kicad,Pcbnew,8.0.5
; #@! TF.FileFunction,Plated,1,4,PTH
FMAT,2
INCH
; #@! TA.AperFunction,Plated,PTH,ViaDrill
T1C0.0098
; #@! TA.AperFunction,Plated,PTH,ViaDrill
T2C0.0118
; #@! TA.AperFunction,Plated,PTH,ComponentDrill
T3C0.0236
; #@! TA.AperFunction,Plated,PTH,ComponentDrill
T4C0.0394
; #@! TA.AperFunction,Plated,PTH,ComponentDrill
T5C0.0394
; #@! TA.AperFunction,Plated,PTH,ComponentDrill
T6C0.0472
; #@! TA.AperFunction,Plated,PTH,ComponentDrill
T7C0.0472
%
G90
G05
T1
X6.6732Y-3.6434
T2
X4.2913Y-1.811
X4.2913Y-5.0984
X4.3307Y-3.1496
X4.3575Y-4.8228
X4.3894Y-4.8228
X4.3898Y-3.75
X4.3898Y-4.5374
X4.4675Y-3.6565
X4.4685Y-3.622
X4.5276Y-1.5157
X4.5763Y-2.9058
X4.5768Y-2.874
X4.6079Y-2.9035
X4.626Y-3.1496
X4.6457Y-2.4803
X4.6654Y-2.7559
X4.685Y-4.2717
X4.685Y-4.8561
X4.7104Y-4.2441
X4.7539Y-4.0846
X4.7638Y-3.8189
X4.7638Y-4.8228
X4.7638Y-4.9606
X4.7647Y-4.8552
X4.77Y-3.5807
X4.7731Y-3.2485
X4.8031Y-3.1299
X4.8031Y-3.2283
X4.8212Y-3.156
X4.85Y-3.1693
X4.8714Y-4.7352
X4.9016Y-3.0512
X4.9016Y-4.5866
X4.9189Y-3.0792
X4.9213Y-3.3268
X4.9316Y-3.5337
X4.9508Y-3.0906
X4.9532Y-3.3277
X4.9803Y-5.2756
X5.0Y-2.9724
X5.0Y-4.0846
X5.0215Y-2.9962
X5.0379Y-3.407
X5.0492Y-3.0118
X5.0787Y-3.4145
X5.0787Y-4.3504
X5.0956Y-3.7405
X5.1181Y-3.563
X5.128Y-2.4016
X5.1287Y-2.4331
X5.134Y-3.5986
X5.1378Y-3.8681
X5.1575Y-5.1772
X5.1772Y-4.1043
X5.2165Y-4.1929
X5.2165Y-4.3504
X5.2177Y-4.5027
X5.2264Y-3.8386
X5.2391Y-3.4351
X5.2461Y-3.2087
X5.2756Y-4.1043
X5.313Y-5.0217
X5.315Y-3.5827
X5.315Y-3.8681
X5.3248Y-1.6634
X5.3422Y-3.6063
X5.3503Y-3.7371
X5.3543Y-2.2441
X5.3544Y-2.9386
X5.3889Y-3.4691
X5.3937Y-4.2717
X5.3937Y-5.0197
X5.4252Y-4.272
X5.4331Y-4.1929
X5.4528Y-4.6654
X5.5058Y-4.0046
X5.521Y-3.7227
X5.5217Y-3.6909
X5.524Y-3.3665
X5.527Y-3.9773
X5.5512Y-3.3399
X5.5512Y-3.9567
X5.5512Y-4.311
X5.5906Y-2.6181
X5.5906Y-4.1732
X5.5906Y-4.4685
X5.5961Y-2.1674
X5.5989Y-4.2044
X5.6001Y-4.5544
X5.6153Y-2.6548
X5.6283Y-2.1695
X5.6299Y-2.6969
X5.6299Y-4.2126
X5.689Y-3.5827
X5.6937Y-3.6139
X5.7179Y-2.5136
X5.7185Y-2.4803
X5.7283Y-3.6614
X5.748Y-1.8012
X5.7526Y-3.6414
X5.7871Y-4.2846
X5.7874Y-4.252
X5.8157Y-4.9016
X5.8268Y-2.815
X5.8268Y-3.5433
X5.8268Y-3.8189
X5.8283Y-2.303
X5.8379Y-2.7822
X5.8408Y-3.7902
X5.852Y-2.2795
X5.8571Y-3.516
X5.8661Y-2.7559
X5.8661Y-3.4843
X5.8661Y-3.8583
X5.892Y-3.8864
X5.9055Y-3.2839
X5.9055Y-3.9173
X5.924Y-3.2581
X5.9291Y-4.0462
X5.93Y-4.0781
X5.9646Y-4.8031
X5.9646Y-4.8819
X5.9646Y-4.9803
X5.9646Y-5.1772
X5.9683Y-2.9015
X5.9744Y-4.124
X5.9843Y-5.0984
X5.9918Y-4.0969
X5.9996Y-2.8976
X6.0039Y-2.6575
X6.0039Y-4.8228
X6.0039Y-4.9213
X6.005Y-1.9105
X6.0236Y-2.874
X6.0236Y-4.0945
X6.0433Y-5.1575
X6.0531Y-2.0866
X6.0537Y-3.1854
X6.0567Y-4.9016
X6.063Y-4.3307
X6.0704Y-4.3634
X6.0787Y-3.1583
X6.1024Y-3.1299
X6.1024Y-4.3701
X6.1325Y-3.1182
X6.1417Y-4.9803
X6.1417Y-5.0385
X6.1417Y-5.0984
X6.1614Y-3.1055
X6.1713Y-3.7165
X6.1796Y-3.7484
X6.1894Y-4.772
X6.2087Y-2.7533
X6.2106Y-2.7854
X6.2106Y-3.7393
X6.2205Y-4.7649
X6.2205Y-5.0385
X6.2376Y-3.6415
X6.2402Y-2.6575
X6.2402Y-2.7461
X6.25Y-3.6122
X6.25Y-4.5768
X6.2944Y-3.7912
X6.2992Y-2.5787
X6.2992Y-5.2362
X6.2998Y-2.6113
X6.3058Y-4.1011
X6.3189Y-3.8189
X6.3189Y-3.8869
X6.3197Y-3.607
X6.322Y-3.6413
X6.3386Y-2.8543
X6.3386Y-3.8583
X6.3386Y-5.1969
X6.3583Y-3.9173
X6.378Y-3.5433
X6.378Y-3.787
X6.378Y-5.2362
X6.3784Y-4.1015
X6.3827Y-3.9473
X6.3833Y-3.51
X6.3878Y-4.5866
X6.3976Y-5.1772
X6.4109Y-3.9766
X6.4173Y-2.8543
X6.4173Y-3.5039
X6.4173Y-3.7402
X6.4173Y-5.1291
X6.437Y-5.2362
X6.4453Y-3.9778
X6.4567Y-5.1772
X6.4593Y-3.7399
X6.4764Y-5.1291
X6.4944Y-3.3961
X6.4961Y-3.7402
X6.5157Y-3.7008
X6.5496Y-3.6926
X6.5607Y-4.6348
X6.565Y-4.0748
X6.5748Y-2.0079
X6.5846Y-4.1043
X6.5945Y-4.252
X6.5946Y-4.284
X6.598Y-3.1852
X6.6338Y-3.2159
X6.6453Y-4.1058
X6.6531Y-4.0739
X6.6617Y-4.6352
X6.6732Y-3.4449
X6.6732Y-4.2323
X6.6816Y-3.1854
X6.6827Y-3.7782
X6.6827Y-4.0846
X6.6909Y-4.2591
X6.6929Y-2.6575
X6.6929Y-4.2913
X6.7024Y-4.9409
X6.7071Y-3.646
X6.7124Y-3.5792
X6.7126Y-2.8543
X6.7126Y-3.5433
X6.7126Y-3.8386
X6.7133Y-3.8015
X6.742Y-3.776
X6.7441Y-5.2165
X6.7441Y-5.2939
X6.752Y-2.5787
X6.752Y-3.5565
X6.752Y-3.8976
X6.752Y-4.3307
X6.754Y-2.6104
X6.7717Y-2.8543
X6.7717Y-4.9228
X6.7717Y-5.315
X6.7761Y-4.2611
X6.7769Y-4.2991
X6.7784Y-3.9232
X6.781Y-4.0518
X6.7913Y-4.0945
X6.8117Y-4.0687
X6.8307Y-3.7992
X6.8327Y-3.9082
X6.8487Y-3.9435
X6.8504Y-3.2677
X6.8504Y-3.4055
X6.8504Y-5.315
X6.8701Y-3.248
X6.8701Y-3.4252
X6.8701Y-4.2913
X6.8837Y-3.6025
X6.9225Y-4.7835
X6.9236Y-4.8231
X6.9291Y-4.2126
X6.9488Y-5.315
X6.9587Y-4.9213
X6.9685Y-3.2488
X6.985Y-3.4646
X6.9961Y-5.2165
X6.9961Y-5.2874
X7.0079Y-3.0512
X7.0274Y-3.9305
X7.0276Y-1.9882
X7.0276Y-4.1496
X7.028Y-4.9409
X7.0314Y-4.0804
X7.0383Y-4.1124
X7.039Y-3.9643
X7.0449Y-3.0377
X7.0472Y-3.4646
X7.0472Y-3.6024
X7.0669Y-3.248
X7.0669Y-3.3268
X7.0669Y-3.4252
X7.0669Y-3.6417
X7.0692Y-3.9796
X7.0843Y-2.9724
X7.0866Y-3.0118
X7.0866Y-3.6811
X7.0866Y-3.7992
X7.0977Y-2.9392
X7.102Y-2.4535
X7.1063Y-3.9764
X7.1063Y-4.0354
X7.1063Y-4.5374
X7.1235Y-4.0051
X7.1301Y-2.4354
X7.1361Y-3.7267
X7.1457Y-2.4016
X7.1554Y-2.3626
X7.185Y-2.3435
X7.2279Y-3.8488
X7.2303Y-3.1102
X7.2417Y-3.8174
X7.2441Y-3.1417
X7.2543Y-3.7884
X7.2568Y-3.1707
X7.2835Y-3.0512
X7.3031Y-2.313
X7.31Y-3.2704
X7.31Y-3.2239
X7.313Y-3.0742
X7.3425Y-4.252
X7.3425Y-4.5571
X7.3437Y-4.2861
X7.3466Y-2.698
X7.3544Y-2.6614
X7.3622Y-2.6181
X7.3819Y-1.7126
X7.3819Y-3.9764
X7.3888Y-4.0073
X7.4016Y-2.1654
X7.4016Y-4.0945
X7.4164Y-2.1356
X7.4409Y-3.9961
X7.4468Y-4.031
X7.4803Y-1.9882
X7.4803Y-4.311
X7.4937Y-4.3414
X7.5036Y-4.1197
X7.5197Y-2.4016
X7.5422Y-4.1197
X7.5458Y-2.4253
X7.5632Y-4.1433
X7.5654Y-2.4532
X7.5894Y-2.622
X7.5984Y-3.5565
X7.6101Y-2.6458
X7.6371Y-3.5567
X7.6378Y-2.2343
X7.6378Y-3.7008
X7.6513Y-4.1187
X7.6575Y-3.6417
X7.6575Y-4.0157
X7.6772Y-3.7008
X7.6772Y-4.0945
X7.6969Y-2.8346
X7.6969Y-2.874
X7.6999Y-3.5433
X7.7165Y-4.3983
X7.7165Y-4.9213
X7.7347Y-2.7408
X7.7362Y-3.1496
X7.7618Y-2.7602
X7.7756Y-3.8386
X7.7756Y-3.8976
X7.7756Y-4.1339
X7.7835Y-3.5935
X7.7854Y-2.7854
X7.7916Y-3.8674
X7.7953Y-1.8307
X7.8051Y-5.0787
X7.8543Y-1.8307
X7.8543Y-1.8898
X7.9134Y-1.4764
X7.9134Y-4.9401
X7.9331Y-4.5759
X8.0326Y-3.5895
X8.0419Y-4.1356
X8.0807Y-5.0787
X8.1004Y-1.7421
T4
X5.1764Y-3.9362
X5.1764Y-4.0362
X5.2764Y-3.9362
X5.2764Y-4.0362
X6.4756Y-4.9016
X6.5756Y-4.9016
T5
X4.5079Y-2.0244
X4.5079Y-2.1244
X4.5079Y-2.2244
X4.5079Y-2.3244
X4.6079Y-2.0244
X4.6079Y-2.1244
X4.6079Y-2.2244
X4.6079Y-2.3244
X7.8525Y-2.299
X7.8525Y-2.399
X7.8525Y-2.499
X7.8525Y-2.599
X7.8528Y-2.9906
X7.8528Y-3.0906
X7.8528Y-3.1906
X7.8528Y-3.2906
X7.9525Y-2.299
X7.9525Y-2.399
X7.9525Y-2.499
X7.9525Y-2.599
X7.9528Y-2.9906
X7.9528Y-3.0906
X7.9528Y-3.1906
X7.9528Y-3.2906
T6
X4.6524Y-1.624
X4.6524Y-1.724
X4.7524Y-1.624
X4.7524Y-1.724
X4.8524Y-1.624
X4.8524Y-1.724
X4.9524Y-1.624
X4.9524Y-1.724
X5.0524Y-1.624
X5.0524Y-1.724
X5.5283Y-1.6232
X5.5283Y-1.7232
X5.6283Y-1.6232
X5.6283Y-1.7232
X5.7283Y-1.6232
X5.7283Y-1.7232
X5.8283Y-1.6232
X5.8283Y-1.7232
X5.9283Y-1.6232
X5.9283Y-1.7232
T7
X4.5272Y-4.7244
X4.5272Y-4.9213
X4.5371Y-3.3465
X4.5371Y-3.5433
X6.1611Y-1.753
X6.3579Y-1.753
X6.6138Y-1.7511
X6.8107Y-1.7511
X7.0666Y-1.7517
X7.2634Y-1.7517
X7.5193Y-1.7511
X7.7162Y-1.7511
T3
G00X6.6996Y-5.1312
M15
G01X6.6996Y-5.1667
M16
G05
G00X6.6996Y-5.2588
M15
G01X6.6996Y-5.2903
M16
G05
G00X7.0406Y-5.1312
M15
G01X7.0406Y-5.1667
M16
G05
G00X7.0406Y-5.2588
M15
G01X7.0406Y-5.2903
M16
G05
M30
