%TF.GenerationSoftware,KiCad,Pcbnew,8.0.5*%
%TF.CreationDate,2024-10-26T11:24:14-04:00*%
%TF.ProjectId,stm-midi-poc1,73746d2d-6d69-4646-992d-706f63312e6b,1*%
%TF.SameCoordinates,Original*%
%TF.FileFunction,Soldermask,Top*%
%TF.FilePolarity,Negative*%
%FSLAX46Y46*%
G04 Gerber Fmt 4.6, Leading zero omitted, Abs format (unit mm)*
G04 Created by KiCad (PCBNEW 8.0.5) date 2024-10-26 11:24:14*
%MOMM*%
%LPD*%
G01*
G04 APERTURE LIST*
G04 Aperture macros list*
%AMRoundRect*
0 Rectangle with rounded corners*
0 $1 Rounding radius*
0 $2 $3 $4 $5 $6 $7 $8 $9 X,Y pos of 4 corners*
0 Add a 4 corners polygon primitive as box body*
4,1,4,$2,$3,$4,$5,$6,$7,$8,$9,$2,$3,0*
0 Add four circle primitives for the rounded corners*
1,1,$1+$1,$2,$3*
1,1,$1+$1,$4,$5*
1,1,$1+$1,$6,$7*
1,1,$1+$1,$8,$9*
0 Add four rect primitives between the rounded corners*
20,1,$1+$1,$2,$3,$4,$5,0*
20,1,$1+$1,$4,$5,$6,$7,0*
20,1,$1+$1,$6,$7,$8,$9,0*
20,1,$1+$1,$8,$9,$2,$3,0*%
%AMRotRect*
0 Rectangle, with rotation*
0 The origin of the aperture is its center*
0 $1 length*
0 $2 width*
0 $3 Rotation angle, in degrees counterclockwise*
0 Add horizontal line*
21,1,$1,$2,0,0,$3*%
G04 Aperture macros list end*
%ADD10R,1.700000X1.700000*%
%ADD11O,1.700000X1.700000*%
%ADD12RoundRect,0.075000X-0.075000X0.700000X-0.075000X-0.700000X0.075000X-0.700000X0.075000X0.700000X0*%
%ADD13RoundRect,0.075000X-0.700000X0.075000X-0.700000X-0.075000X0.700000X-0.075000X0.700000X0.075000X0*%
%ADD14RoundRect,0.140000X0.170000X-0.140000X0.170000X0.140000X-0.170000X0.140000X-0.170000X-0.140000X0*%
%ADD15C,1.200000*%
%ADD16R,3.100000X1.500000*%
%ADD17RoundRect,0.225000X-0.250000X0.225000X-0.250000X-0.225000X0.250000X-0.225000X0.250000X0.225000X0*%
%ADD18RoundRect,0.135000X-0.185000X0.135000X-0.185000X-0.135000X0.185000X-0.135000X0.185000X0.135000X0*%
%ADD19RoundRect,0.140000X0.140000X0.170000X-0.140000X0.170000X-0.140000X-0.170000X0.140000X-0.170000X0*%
%ADD20R,1.700000X1.000000*%
%ADD21RoundRect,0.140000X-0.140000X-0.170000X0.140000X-0.170000X0.140000X0.170000X-0.140000X0.170000X0*%
%ADD22RoundRect,0.100000X-0.637500X-0.100000X0.637500X-0.100000X0.637500X0.100000X-0.637500X0.100000X0*%
%ADD23RoundRect,0.135000X0.185000X-0.135000X0.185000X0.135000X-0.185000X0.135000X-0.185000X-0.135000X0*%
%ADD24R,0.700000X1.250000*%
%ADD25RoundRect,0.140000X-0.170000X0.140000X-0.170000X-0.140000X0.170000X-0.140000X0.170000X0.140000X0*%
%ADD26RoundRect,0.062500X0.117500X0.062500X-0.117500X0.062500X-0.117500X-0.062500X0.117500X-0.062500X0*%
%ADD27RoundRect,0.250000X-0.250000X-0.475000X0.250000X-0.475000X0.250000X0.475000X-0.250000X0.475000X0*%
%ADD28RoundRect,0.218750X0.256250X-0.218750X0.256250X0.218750X-0.256250X0.218750X-0.256250X-0.218750X0*%
%ADD29RoundRect,0.218750X0.218750X0.256250X-0.218750X0.256250X-0.218750X-0.256250X0.218750X-0.256250X0*%
%ADD30RotRect,1.400000X1.200000X125.000000*%
%ADD31R,1.000000X1.800000*%
%ADD32R,0.800000X1.000000*%
%ADD33C,0.900000*%
%ADD34R,1.500000X0.700000*%
%ADD35RoundRect,0.135000X-0.135000X-0.185000X0.135000X-0.185000X0.135000X0.185000X-0.135000X0.185000X0*%
%ADD36R,1.500000X3.100000*%
%ADD37RoundRect,0.225000X0.225000X0.250000X-0.225000X0.250000X-0.225000X-0.250000X0.225000X-0.250000X0*%
%ADD38R,0.280000X0.660000*%
%ADD39R,0.660000X0.280000*%
%ADD40R,1.750000X1.750000*%
%ADD41C,2.200000*%
%ADD42RoundRect,0.135000X0.135000X0.185000X-0.135000X0.185000X-0.135000X-0.185000X0.135000X-0.185000X0*%
%ADD43RoundRect,0.375000X0.625000X0.375000X-0.625000X0.375000X-0.625000X-0.375000X0.625000X-0.375000X0*%
%ADD44RoundRect,0.500000X0.500000X1.400000X-0.500000X1.400000X-0.500000X-1.400000X0.500000X-1.400000X0*%
%ADD45O,1.000000X1.900000*%
%ADD46O,1.000000X1.800000*%
%ADD47R,0.600000X1.150000*%
%ADD48R,0.300000X1.150000*%
%ADD49RoundRect,0.250000X0.475000X-0.250000X0.475000X0.250000X-0.475000X0.250000X-0.475000X-0.250000X0*%
%ADD50RoundRect,0.225000X0.225000X0.375000X-0.225000X0.375000X-0.225000X-0.375000X0.225000X-0.375000X0*%
%ADD51C,2.000000*%
%ADD52R,1.520000X1.780000*%
%ADD53R,1.800000X1.800000*%
%ADD54C,1.800000*%
%ADD55RoundRect,0.250000X-0.475000X0.250000X-0.475000X-0.250000X0.475000X-0.250000X0.475000X0.250000X0*%
%ADD56RoundRect,0.250000X0.250000X0.475000X-0.250000X0.475000X-0.250000X-0.475000X0.250000X-0.475000X0*%
%ADD57RoundRect,0.225000X-0.225000X-0.250000X0.225000X-0.250000X0.225000X0.250000X-0.225000X0.250000X0*%
%ADD58RoundRect,0.062500X-0.117500X-0.062500X0.117500X-0.062500X0.117500X0.062500X-0.117500X0.062500X0*%
%ADD59R,0.800000X0.650000*%
%ADD60R,0.800000X0.500000*%
%ADD61RoundRect,0.218750X-0.218750X-0.256250X0.218750X-0.256250X0.218750X0.256250X-0.218750X0.256250X0*%
%ADD62RoundRect,0.062500X0.038891X0.127279X-0.127279X-0.038891X-0.038891X-0.127279X0.127279X0.038891X0*%
G04 APERTURE END LIST*
D10*
%TO.C,J9*%
X114500000Y-66700000D03*
D11*
X114500000Y-69240000D03*
X114500000Y-71780000D03*
X114500000Y-74320000D03*
%TD*%
D12*
%TO.C,U1*%
X174741181Y-94350976D03*
X174241181Y-94350976D03*
X173741181Y-94350976D03*
X173241181Y-94350976D03*
X172741181Y-94350976D03*
X172241181Y-94350976D03*
X171741181Y-94350976D03*
X171241181Y-94350976D03*
X170741181Y-94350976D03*
X170241181Y-94350976D03*
X169741181Y-94350976D03*
X169241181Y-94350976D03*
X168741181Y-94350976D03*
X168241181Y-94350976D03*
X167741181Y-94350976D03*
X167241181Y-94350976D03*
D13*
X165316181Y-96275976D03*
X165316181Y-96775976D03*
X165316181Y-97275976D03*
X165316181Y-97775976D03*
X165316181Y-98275976D03*
X165316181Y-98775976D03*
X165316181Y-99275976D03*
X165316181Y-99775976D03*
X165316181Y-100275976D03*
X165316181Y-100775976D03*
X165316181Y-101275976D03*
X165316181Y-101775976D03*
X165316181Y-102275976D03*
X165316181Y-102775976D03*
X165316181Y-103275976D03*
X165316181Y-103775976D03*
D12*
X167241181Y-105700976D03*
X167741181Y-105700976D03*
X168241181Y-105700976D03*
X168741181Y-105700976D03*
X169241181Y-105700976D03*
X169741181Y-105700976D03*
X170241181Y-105700976D03*
X170741181Y-105700976D03*
X171241181Y-105700976D03*
X171741181Y-105700976D03*
X172241181Y-105700976D03*
X172741181Y-105700976D03*
X173241181Y-105700976D03*
X173741181Y-105700976D03*
X174241181Y-105700976D03*
X174741181Y-105700976D03*
D13*
X176666181Y-103775976D03*
X176666181Y-103275976D03*
X176666181Y-102775976D03*
X176666181Y-102275976D03*
X176666181Y-101775976D03*
X176666181Y-101275976D03*
X176666181Y-100775976D03*
X176666181Y-100275976D03*
X176666181Y-99775976D03*
X176666181Y-99275976D03*
X176666181Y-98775976D03*
X176666181Y-98275976D03*
X176666181Y-97775976D03*
X176666181Y-97275976D03*
X176666181Y-96775976D03*
X176666181Y-96275976D03*
%TD*%
D14*
%TO.C,C16*%
X175750000Y-83480000D03*
X175750000Y-82520000D03*
%TD*%
D15*
%TO.C,CN4*%
X167991181Y-44478476D03*
X172991181Y-44478476D03*
D16*
X167041181Y-48478476D03*
X167041181Y-40978476D03*
X173941181Y-40978476D03*
X173941181Y-48478476D03*
%TD*%
D14*
%TO.C,C2*%
X163036385Y-97149799D03*
X163036385Y-96189799D03*
%TD*%
D17*
%TO.C,C29*%
X125000000Y-118725000D03*
X125000000Y-120275000D03*
%TD*%
D18*
%TO.C,R13*%
X196991181Y-50968472D03*
X196991181Y-51988472D03*
%TD*%
D19*
%TO.C,C35*%
X134480000Y-106500000D03*
X133520000Y-106500000D03*
%TD*%
D20*
%TO.C,SW5*%
X204291181Y-103828476D03*
X197691181Y-103828476D03*
X204291181Y-100128476D03*
X197691181Y-100128476D03*
%TD*%
D10*
%TO.C,J2*%
X202000000Y-58420000D03*
D11*
X202000000Y-60960000D03*
X202000000Y-63500000D03*
X202000000Y-66040000D03*
X202000000Y-68580000D03*
%TD*%
D21*
%TO.C,C44*%
X174011181Y-67978476D03*
X174971181Y-67978476D03*
%TD*%
D22*
%TO.C,U4*%
X131137500Y-113075000D03*
X131137500Y-113725000D03*
X131137500Y-114375000D03*
X131137500Y-115025000D03*
X131137500Y-115675000D03*
X131137500Y-116325000D03*
X131137500Y-116975000D03*
X131137500Y-117625000D03*
X131137500Y-118275000D03*
X131137500Y-118925000D03*
X136862500Y-118925000D03*
X136862500Y-118275000D03*
X136862500Y-117625000D03*
X136862500Y-116975000D03*
X136862500Y-116325000D03*
X136862500Y-115675000D03*
X136862500Y-115025000D03*
X136862500Y-114375000D03*
X136862500Y-113725000D03*
X136862500Y-113075000D03*
%TD*%
D23*
%TO.C,R20*%
X203500000Y-88010000D03*
X203500000Y-86990000D03*
%TD*%
D24*
%TO.C,U8*%
X134950000Y-129000000D03*
X133050000Y-129000000D03*
X134000000Y-131000000D03*
%TD*%
D21*
%TO.C,C34*%
X136020000Y-106500000D03*
X136980000Y-106500000D03*
%TD*%
%TO.C,C6*%
X168520000Y-91500000D03*
X169480000Y-91500000D03*
%TD*%
%TO.C,C7*%
X168520000Y-90000000D03*
X169480000Y-90000000D03*
%TD*%
D25*
%TO.C,C26*%
X139526545Y-114705054D03*
X139526545Y-115665054D03*
%TD*%
D26*
%TO.C,D8*%
X172912313Y-125039289D03*
X173752313Y-125039289D03*
%TD*%
D27*
%TO.C,C15*%
X154041181Y-122478476D03*
X155941181Y-122478476D03*
%TD*%
D25*
%TO.C,C9*%
X195500000Y-123020000D03*
X195500000Y-123980000D03*
%TD*%
D19*
%TO.C,C41*%
X130881181Y-86728476D03*
X129921181Y-86728476D03*
%TD*%
D28*
%TO.C,D3*%
X170590006Y-114499994D03*
X170590006Y-112924994D03*
%TD*%
D23*
%TO.C,R22*%
X134500000Y-109530000D03*
X134500000Y-108510000D03*
%TD*%
D29*
%TO.C,FB1*%
X166787500Y-90000000D03*
X165212500Y-90000000D03*
%TD*%
D30*
%TO.C,Y1*%
X169761869Y-85302133D03*
X168500000Y-83500000D03*
X167107443Y-84475081D03*
X168369312Y-86277214D03*
%TD*%
D31*
%TO.C,X1*%
X178250000Y-85500000D03*
X175750000Y-85500000D03*
%TD*%
D18*
%TO.C,R21*%
X145000000Y-111990000D03*
X145000000Y-113010000D03*
%TD*%
D25*
%TO.C,C32*%
X139500000Y-112520000D03*
X139500000Y-113480000D03*
%TD*%
D14*
%TO.C,C38*%
X131901181Y-94708476D03*
X131901181Y-93748476D03*
%TD*%
D32*
%TO.C,SW1*%
X203711181Y-117628476D03*
X205921181Y-117628476D03*
D33*
X204821181Y-115478476D03*
X204821181Y-112478476D03*
D32*
X203711181Y-110328476D03*
X205921181Y-110328476D03*
D34*
X203061181Y-116228476D03*
X203061181Y-113228476D03*
X203061181Y-111728476D03*
%TD*%
D25*
%TO.C,C28*%
X128500000Y-118520000D03*
X128500000Y-119480000D03*
%TD*%
D14*
%TO.C,C10*%
X170934656Y-81868607D03*
X170934656Y-80908607D03*
%TD*%
%TO.C,C17*%
X178250000Y-83480000D03*
X178250000Y-82520000D03*
%TD*%
D19*
%TO.C,C36*%
X135881181Y-93728476D03*
X134921181Y-93728476D03*
%TD*%
D35*
%TO.C,R29*%
X169990000Y-67978476D03*
X171010000Y-67978476D03*
%TD*%
D15*
%TO.C,CN5*%
X114991181Y-125000000D03*
X114991181Y-120000000D03*
D36*
X118991181Y-125950000D03*
X111491181Y-125950000D03*
X111491181Y-119050000D03*
X118991181Y-119050000D03*
%TD*%
D37*
%TO.C,C12*%
X161266181Y-103025976D03*
X159716181Y-103025976D03*
%TD*%
D38*
%TO.C,U3*%
X131741181Y-91388476D03*
X132241181Y-91388476D03*
X132741181Y-91388476D03*
X133241181Y-91388476D03*
D39*
X133901181Y-90728476D03*
X133901181Y-90228476D03*
X133901181Y-89728476D03*
X133901181Y-89228476D03*
D38*
X133241181Y-88568476D03*
X132741181Y-88568476D03*
X132241181Y-88568476D03*
X131741181Y-88568476D03*
D39*
X131081181Y-89228476D03*
X131081181Y-89728476D03*
X131081181Y-90228476D03*
X131081181Y-90728476D03*
D40*
X132491181Y-89978476D03*
%TD*%
D41*
%TO.C,H3*%
X202491181Y-131978476D03*
%TD*%
D18*
%TO.C,R26*%
X185491181Y-50775976D03*
X185491181Y-51795976D03*
%TD*%
%TO.C,R6*%
X170430006Y-116702494D03*
X170430006Y-117722494D03*
%TD*%
D42*
%TO.C,R25*%
X136010000Y-96728476D03*
X134990000Y-96728476D03*
%TD*%
D10*
%TO.C,J5*%
X194800000Y-132000000D03*
D11*
X192260000Y-132000000D03*
X189720000Y-132000000D03*
X187180000Y-132000000D03*
%TD*%
D18*
%TO.C,R17*%
X198000000Y-86990000D03*
X198000000Y-88010000D03*
%TD*%
D23*
%TO.C,R11*%
X194500000Y-100988476D03*
X194500000Y-99968476D03*
%TD*%
D15*
%TO.C,CN6*%
X115241181Y-90000000D03*
X115241181Y-85000000D03*
D36*
X119241181Y-90950000D03*
X111741181Y-90950000D03*
X111741181Y-84050000D03*
X119241181Y-84050000D03*
%TD*%
D23*
%TO.C,R23*%
X136000000Y-109530000D03*
X136000000Y-108510000D03*
%TD*%
D19*
%TO.C,C5*%
X174960000Y-107911823D03*
X174000000Y-107911823D03*
%TD*%
D32*
%TO.C,SW2*%
X110280000Y-106350000D03*
X108070000Y-106350000D03*
D33*
X109170000Y-108500000D03*
X109170000Y-111500000D03*
D32*
X110280000Y-113650000D03*
X108070000Y-113650000D03*
D34*
X110930000Y-107750000D03*
X110930000Y-110750000D03*
X110930000Y-112250000D03*
%TD*%
D35*
%TO.C,R3*%
X170510545Y-126708964D03*
X171530545Y-126708964D03*
%TD*%
D20*
%TO.C,SW4*%
X197691181Y-92628476D03*
X204291181Y-92628476D03*
X197691181Y-96328476D03*
X204291181Y-96328476D03*
%TD*%
D43*
%TO.C,U2*%
X160141181Y-130278476D03*
X160141181Y-127978476D03*
D44*
X153841181Y-127978476D03*
D43*
X160141181Y-125678476D03*
%TD*%
D25*
%TO.C,C19*%
X196000000Y-99998476D03*
X196000000Y-100958476D03*
%TD*%
D10*
%TO.C,J3*%
X202000000Y-83580000D03*
D11*
X199460000Y-83580000D03*
X202000000Y-81040000D03*
X199460000Y-81040000D03*
X202000000Y-78500000D03*
X199460000Y-78500000D03*
X202000000Y-75960000D03*
X199460000Y-75960000D03*
%TD*%
D25*
%TO.C,C25*%
X141026545Y-114725054D03*
X141026545Y-115685054D03*
%TD*%
D32*
%TO.C,SW3*%
X110280000Y-96251199D03*
X108070000Y-96251199D03*
D33*
X109170000Y-98401199D03*
X109170000Y-101401199D03*
D32*
X110280000Y-103551199D03*
X108070000Y-103551199D03*
D34*
X110930000Y-97651199D03*
X110930000Y-100651199D03*
X110930000Y-102151199D03*
%TD*%
D45*
%TO.C,J1*%
X170170000Y-130783476D03*
X178830000Y-130783476D03*
D46*
X178830000Y-133973476D03*
X170170000Y-133973476D03*
D47*
X171300000Y-130223476D03*
X172100000Y-130223476D03*
D48*
X173250000Y-130223476D03*
X174250000Y-130223476D03*
X174750000Y-130223476D03*
X175750000Y-130223476D03*
D47*
X177700000Y-130223476D03*
X176900000Y-130223476D03*
D48*
X176250000Y-130223476D03*
X175250000Y-130223476D03*
X173750000Y-130223476D03*
X172750000Y-130223476D03*
%TD*%
D21*
%TO.C,C4*%
X176011181Y-93000000D03*
X176971181Y-93000000D03*
%TD*%
D49*
%TO.C,C14*%
X159991181Y-122928476D03*
X159991181Y-121028476D03*
%TD*%
D21*
%TO.C,C20*%
X161511181Y-68025976D03*
X162471181Y-68025976D03*
%TD*%
D14*
%TO.C,C30*%
X130000000Y-111480000D03*
X130000000Y-110520000D03*
%TD*%
%TO.C,C33*%
X131500000Y-111480000D03*
X131500000Y-110520000D03*
%TD*%
D18*
%TO.C,R12*%
X196000000Y-102988476D03*
X196000000Y-104008476D03*
%TD*%
D10*
%TO.C,J6*%
X140425000Y-41198800D03*
D11*
X142965000Y-41198800D03*
X145505000Y-41198800D03*
X148045000Y-41198800D03*
X150585000Y-41198800D03*
%TD*%
D41*
%TO.C,H4*%
X111491179Y-131978478D03*
%TD*%
D23*
%TO.C,R19*%
X202000000Y-88010000D03*
X202000000Y-86990000D03*
%TD*%
D15*
%TO.C,CN1*%
X190991181Y-44478472D03*
X195991181Y-44478472D03*
D16*
X190041181Y-48478472D03*
X190041181Y-40978472D03*
X196941181Y-40978472D03*
X196941181Y-48478472D03*
%TD*%
D14*
%TO.C,C11*%
X166434656Y-81868607D03*
X166434656Y-80908607D03*
%TD*%
D25*
%TO.C,C31*%
X141000000Y-112520000D03*
X141000000Y-113480000D03*
%TD*%
D50*
%TO.C,D6*%
X159141181Y-52025976D03*
X155841181Y-52025976D03*
%TD*%
D18*
%TO.C,R9*%
X194500000Y-95468476D03*
X194500000Y-96488476D03*
%TD*%
D51*
%TO.C,FID3*%
X202491181Y-45500000D03*
%TD*%
D21*
%TO.C,C43*%
X135904019Y-89072263D03*
X136864019Y-89072263D03*
%TD*%
D35*
%TO.C,R16*%
X156981181Y-68025976D03*
X158001181Y-68025976D03*
%TD*%
D27*
%TO.C,C40*%
X126550000Y-89728476D03*
X128450000Y-89728476D03*
%TD*%
D52*
%TO.C,U6*%
X162301181Y-55975976D03*
X159761181Y-55975976D03*
X157221181Y-55975976D03*
X154681181Y-55975976D03*
X154681181Y-65075976D03*
X157221181Y-65075976D03*
X159761181Y-65075976D03*
X162301181Y-65075976D03*
%TD*%
D35*
%TO.C,R24*%
X129490000Y-96728476D03*
X130510000Y-96728476D03*
%TD*%
D25*
%TO.C,C3*%
X178991181Y-95520000D03*
X178991181Y-96480000D03*
%TD*%
D19*
%TO.C,C42*%
X133381181Y-86228476D03*
X132421181Y-86228476D03*
%TD*%
D35*
%TO.C,R4*%
X174812381Y-123602739D03*
X175832381Y-123602739D03*
%TD*%
D18*
%TO.C,R7*%
X167920006Y-116702494D03*
X167920006Y-117722494D03*
%TD*%
D53*
%TO.C,P1*%
X135890000Y-41230000D03*
D54*
X135890000Y-43770000D03*
X133350000Y-41230000D03*
X133350000Y-43770000D03*
X130810000Y-41230000D03*
X130810000Y-43770000D03*
X128270000Y-41230000D03*
X128270000Y-43770000D03*
X125730000Y-41230000D03*
X125730000Y-43770000D03*
X123190000Y-41230000D03*
X123190000Y-43770000D03*
X120650000Y-41230000D03*
X120650000Y-43770000D03*
X118110000Y-41230000D03*
X118110000Y-43770000D03*
%TD*%
D14*
%TO.C,C18*%
X196000000Y-96458476D03*
X196000000Y-95498476D03*
%TD*%
D42*
%TO.C,R2*%
X178510000Y-127000000D03*
X177490000Y-127000000D03*
%TD*%
D18*
%TO.C,R15*%
X162491181Y-51015976D03*
X162491181Y-52035976D03*
%TD*%
D10*
%TO.C,J4*%
X117040000Y-59040000D03*
D11*
X114500000Y-59040000D03*
X117040000Y-56500000D03*
X114500000Y-56500000D03*
X117040000Y-53960000D03*
X114500000Y-53960000D03*
X117040000Y-51420000D03*
X114500000Y-51420000D03*
%TD*%
D52*
%TO.C,U7*%
X175301181Y-55928476D03*
X172761181Y-55928476D03*
X170221181Y-55928476D03*
X167681181Y-55928476D03*
X167681181Y-65028476D03*
X170221181Y-65028476D03*
X172761181Y-65028476D03*
X175301181Y-65028476D03*
%TD*%
D15*
%TO.C,CN2*%
X156491181Y-44525976D03*
X161491181Y-44525976D03*
D16*
X155541181Y-48525976D03*
X155541181Y-41025976D03*
X162441181Y-41025976D03*
X162441181Y-48525976D03*
%TD*%
D14*
%TO.C,C21*%
X137000000Y-129980000D03*
X137000000Y-129020000D03*
%TD*%
%TO.C,C39*%
X133401181Y-94708476D03*
X133401181Y-93748476D03*
%TD*%
D55*
%TO.C,C23*%
X127500000Y-112550000D03*
X127500000Y-114450000D03*
%TD*%
D18*
%TO.C,R18*%
X199500000Y-86990000D03*
X199500000Y-88010000D03*
%TD*%
D25*
%TO.C,C27*%
X127000000Y-118520000D03*
X127000000Y-119480000D03*
%TD*%
D14*
%TO.C,C8*%
X165000000Y-88480000D03*
X165000000Y-87520000D03*
%TD*%
D23*
%TO.C,R10*%
X196000000Y-93488476D03*
X196000000Y-92468476D03*
%TD*%
D56*
%TO.C,C24*%
X127950000Y-116500000D03*
X126050000Y-116500000D03*
%TD*%
D25*
%TO.C,C22*%
X131000000Y-129020000D03*
X131000000Y-129980000D03*
%TD*%
D57*
%TO.C,C1*%
X175834375Y-91503996D03*
X177384375Y-91503996D03*
%TD*%
D15*
%TO.C,CN3*%
X179491181Y-44493096D03*
X184491181Y-44493096D03*
D16*
X178541181Y-48493096D03*
X178541181Y-40993096D03*
X185441181Y-40993096D03*
X185441181Y-48493096D03*
%TD*%
D18*
%TO.C,R8*%
X165430006Y-116702494D03*
X165430006Y-117722494D03*
%TD*%
D28*
%TO.C,D4*%
X168000006Y-114499994D03*
X168000006Y-112924994D03*
%TD*%
D41*
%TO.C,H2*%
X202491181Y-40978476D03*
%TD*%
D58*
%TO.C,D9*%
X175654331Y-125032299D03*
X174814331Y-125032299D03*
%TD*%
D59*
%TO.C,RN1*%
X146800000Y-118700000D03*
D60*
X146800000Y-117900000D03*
X146800000Y-117100000D03*
D59*
X146800000Y-116300000D03*
X145000000Y-116300000D03*
D60*
X145000000Y-117100000D03*
X145000000Y-117900000D03*
D59*
X145000000Y-118700000D03*
%TD*%
D50*
%TO.C,D7*%
X170641181Y-51978476D03*
X167341181Y-51978476D03*
%TD*%
D41*
%TO.C,H1*%
X111491181Y-40978476D03*
%TD*%
D28*
%TO.C,D5*%
X165410006Y-114499994D03*
X165410006Y-112924994D03*
%TD*%
D18*
%TO.C,R14*%
X189991181Y-50968472D03*
X189991181Y-51988472D03*
%TD*%
D20*
%TO.C,SW6*%
X197691181Y-121778476D03*
X204291181Y-121778476D03*
X197691181Y-125478476D03*
X204291181Y-125478476D03*
%TD*%
D21*
%TO.C,C37*%
X129421181Y-93728476D03*
X130381181Y-93728476D03*
%TD*%
D18*
%TO.C,R27*%
X178491181Y-50765976D03*
X178491181Y-51785976D03*
%TD*%
D14*
%TO.C,C13*%
X163000000Y-104980000D03*
X163000000Y-104020000D03*
%TD*%
D51*
%TO.C,FID2*%
X198000000Y-132000000D03*
%TD*%
D35*
%TO.C,R1*%
X199600834Y-113227220D03*
X200620834Y-113227220D03*
%TD*%
D23*
%TO.C,R5*%
X149209778Y-125510000D03*
X149209778Y-124490000D03*
%TD*%
D61*
%TO.C,D2*%
X149212500Y-128500000D03*
X150787500Y-128500000D03*
%TD*%
D18*
%TO.C,R28*%
X173991181Y-51468476D03*
X173991181Y-52488476D03*
%TD*%
D62*
%TO.C,D10*%
X165703015Y-129296985D03*
X166296985Y-128703015D03*
%TD*%
D51*
%TO.C,FID1*%
X116000000Y-131978478D03*
%TD*%
M02*
