%TF.GenerationSoftware,KiCad,Pcbnew,8.0.5*%
%TF.CreationDate,2024-10-26T11:24:14-04:00*%
%TF.ProjectId,stm-midi-poc1,73746d2d-6d69-4646-992d-706f63312e6b,1*%
%TF.SameCoordinates,Original*%
%TF.FileFunction,Soldermask,Bot*%
%TF.FilePolarity,Negative*%
%FSLAX46Y46*%
G04 Gerber Fmt 4.6, Leading zero omitted, Abs format (unit mm)*
G04 Created by KiCad (PCBNEW 8.0.5) date 2024-10-26 11:24:14*
%MOMM*%
%LPD*%
G01*
G04 APERTURE LIST*
%ADD10R,1.700000X1.700000*%
%ADD11O,1.700000X1.700000*%
%ADD12C,1.200000*%
%ADD13C,0.900000*%
%ADD14C,2.200000*%
%ADD15O,1.000000X1.900000*%
%ADD16O,1.000000X1.800000*%
%ADD17R,1.800000X1.800000*%
%ADD18C,1.800000*%
G04 APERTURE END LIST*
D10*
%TO.C,J9*%
X114500000Y-66700000D03*
D11*
X114500000Y-69240000D03*
X114500000Y-71780000D03*
X114500000Y-74320000D03*
%TD*%
D12*
%TO.C,CN4*%
X167991181Y-44478476D03*
X172991181Y-44478476D03*
%TD*%
D10*
%TO.C,J2*%
X202000000Y-58420000D03*
D11*
X202000000Y-60960000D03*
X202000000Y-63500000D03*
X202000000Y-66040000D03*
X202000000Y-68580000D03*
%TD*%
D13*
%TO.C,SW1*%
X204821181Y-115478476D03*
X204821181Y-112478476D03*
%TD*%
D12*
%TO.C,CN5*%
X114991181Y-125000000D03*
X114991181Y-120000000D03*
%TD*%
D14*
%TO.C,H3*%
X202491181Y-131978476D03*
%TD*%
D10*
%TO.C,J5*%
X194800000Y-132000000D03*
D11*
X192260000Y-132000000D03*
X189720000Y-132000000D03*
X187180000Y-132000000D03*
%TD*%
D12*
%TO.C,CN6*%
X115241181Y-90000000D03*
X115241181Y-85000000D03*
%TD*%
D13*
%TO.C,SW2*%
X109170000Y-108500000D03*
X109170000Y-111500000D03*
%TD*%
D10*
%TO.C,J3*%
X202000000Y-83580000D03*
D11*
X199460000Y-83580000D03*
X202000000Y-81040000D03*
X199460000Y-81040000D03*
X202000000Y-78500000D03*
X199460000Y-78500000D03*
X202000000Y-75960000D03*
X199460000Y-75960000D03*
%TD*%
D13*
%TO.C,SW3*%
X109170000Y-98401199D03*
X109170000Y-101401199D03*
%TD*%
D15*
%TO.C,J1*%
X170170000Y-130783476D03*
X178830000Y-130783476D03*
D16*
X178830000Y-133973476D03*
X170170000Y-133973476D03*
%TD*%
D10*
%TO.C,J6*%
X140425000Y-41198800D03*
D11*
X142965000Y-41198800D03*
X145505000Y-41198800D03*
X148045000Y-41198800D03*
X150585000Y-41198800D03*
%TD*%
D14*
%TO.C,H4*%
X111491179Y-131978478D03*
%TD*%
D12*
%TO.C,CN1*%
X190991181Y-44478472D03*
X195991181Y-44478472D03*
%TD*%
D17*
%TO.C,P1*%
X135890000Y-41230000D03*
D18*
X135890000Y-43770000D03*
X133350000Y-41230000D03*
X133350000Y-43770000D03*
X130810000Y-41230000D03*
X130810000Y-43770000D03*
X128270000Y-41230000D03*
X128270000Y-43770000D03*
X125730000Y-41230000D03*
X125730000Y-43770000D03*
X123190000Y-41230000D03*
X123190000Y-43770000D03*
X120650000Y-41230000D03*
X120650000Y-43770000D03*
X118110000Y-41230000D03*
X118110000Y-43770000D03*
%TD*%
D10*
%TO.C,J4*%
X117040000Y-59040000D03*
D11*
X114500000Y-59040000D03*
X117040000Y-56500000D03*
X114500000Y-56500000D03*
X117040000Y-53960000D03*
X114500000Y-53960000D03*
X117040000Y-51420000D03*
X114500000Y-51420000D03*
%TD*%
D12*
%TO.C,CN2*%
X156491181Y-44525976D03*
X161491181Y-44525976D03*
%TD*%
%TO.C,CN3*%
X179491181Y-44493096D03*
X184491181Y-44493096D03*
%TD*%
D14*
%TO.C,H2*%
X202491181Y-40978476D03*
%TD*%
%TO.C,H1*%
X111491181Y-40978476D03*
%TD*%
M02*
