M48
; DRILL file {KiCad 8.0.5} date 2024-10-26T11:24:14-0400
; FORMAT={-:-/ absolute / inch / decimal}
; #@! TF.CreationDate,2024-10-26T11:24:14-04:00
; #@! TF.GenerationSoftware,Kicad,Pcbnew,8.0.5
; #@! TF.FileFunction,Plated,1,4,PTH
FMAT,2
INCH
; #@! TA.AperFunction,Plated,PTH,ViaDrill
T1C0.0098
; #@! TA.AperFunction,Plated,PTH,ViaDrill
T2C0.0118
; #@! TA.AperFunction,Plated,PTH,ComponentDrill
T3C0.0236
; #@! TA.AperFunction,Plated,PTH,ComponentDrill
T4C0.0394
; #@! TA.AperFunction,Plated,PTH,ComponentDrill
T5C0.0472
; #@! TA.AperFunction,Plated,PTH,ComponentDrill
T6C0.0472
%
G90
G05
T1
X6.6732Y-3.6434
T2
X4.3894Y-4.8622
X4.3898Y-4.7835
X4.3898Y-4.8228
X4.3993Y-3.4055
X4.3993Y-3.4449
X4.3993Y-3.4843
X4.4474Y-4.2421
X4.4488Y-3.8445
X4.5272Y-3.9238
X4.5272Y-4.0813
X4.5276Y-3.9567
X4.5276Y-4.1142
X4.6457Y-2.4803
X4.6654Y-2.7559
X4.6654Y-4.8228
X4.685Y-4.2717
X4.7104Y-4.2441
X4.7638Y-5.0
X4.7731Y-3.2485
X4.8031Y-3.1693
X4.8031Y-3.2283
X4.8366Y-3.1611
X4.85Y-3.1224
X4.8714Y-4.7352
X4.8877Y-3.1243
X4.9016Y-3.0906
X4.9016Y-4.5866
X4.9316Y-3.5337
X4.9316Y-3.5827
X4.9421Y-3.0798
X4.95Y-3.0421
X5.0Y-3.0512
X5.0379Y-3.407
X5.0394Y-3.0512
X5.042Y-2.9968
X5.05Y-2.9618
X5.0787Y-3.4145
X5.0787Y-4.3504
X5.0956Y-3.7405
X5.1005Y-2.9708
X5.1378Y-2.9724
X5.1575Y-5.1772
X5.1969Y-2.5591
X5.1969Y-3.8976
X5.1969Y-4.1929
X5.2165Y-2.9331
X5.2165Y-4.3504
X5.2171Y-2.8989
X5.2177Y-4.5027
X5.2259Y-2.5229
X5.2391Y-3.4351
X5.25Y-2.4866
X5.2953Y-3.9075
X5.313Y-5.0217
X5.3152Y-2.4336
X5.3169Y-2.3996
X5.3481Y-2.3359
X5.35Y-2.3031
X5.3503Y-3.7371
X5.3889Y-3.4691
X5.3937Y-5.0197
X5.4132Y-2.2008
X5.4134Y-2.1654
X5.4134Y-3.4449
X5.4134Y-4.2717
X5.4305Y-3.3636
X5.4528Y-3.3858
X5.4528Y-4.1929
X5.4528Y-4.2717
X5.4528Y-4.6654
X5.524Y-3.3665
X5.5243Y-3.9783
X5.5512Y-2.5591
X5.5512Y-3.3399
X5.5512Y-3.9567
X5.5512Y-4.311
X5.5843Y-2.5578
X5.5906Y-2.6181
X5.5906Y-4.1732
X5.5906Y-4.2126
X5.5906Y-4.4685
X5.6001Y-4.5544
X5.6153Y-2.6548
X5.6299Y-2.6969
X5.6299Y-4.2126
X5.689Y-3.5827
X5.6937Y-3.6139
X5.7283Y-3.6614
X5.7526Y-3.6414
X5.7871Y-4.2846
X5.7874Y-4.252
X5.8157Y-4.9016
X5.8268Y-2.815
X5.8268Y-3.5433
X5.8268Y-3.8189
X5.8379Y-2.7822
X5.8408Y-3.7902
X5.8571Y-3.516
X5.8661Y-2.7559
X5.8661Y-3.4843
X5.8661Y-3.8583
X5.892Y-3.8864
X5.9055Y-3.2839
X5.9055Y-3.9173
X5.9161Y-3.2448
X5.9512Y-3.7402
X5.9522Y-2.8937
X5.956Y-4.0462
X5.9646Y-4.8031
X5.9646Y-4.8819
X5.9646Y-4.9803
X5.9646Y-5.1772
X5.9711Y-4.014
X5.9733Y-2.869
X5.9758Y-3.7165
X5.9821Y-3.6399
X5.9843Y-5.0984
X5.9961Y-2.8444
X6.0039Y-4.0157
X6.0039Y-4.8228
X6.0039Y-4.9213
X6.0057Y-3.6147
X6.0236Y-1.6142
X6.0236Y-3.2087
X6.0433Y-5.1575
X6.0537Y-3.1854
X6.0567Y-4.9016
X6.063Y-4.3307
X6.063Y-4.3701
X6.0787Y-3.1583
X6.0898Y-2.6714
X6.1024Y-3.1299
X6.1024Y-4.3701
X6.122Y-2.6969
X6.1328Y-3.1503
X6.1417Y-4.9803
X6.1417Y-5.0385
X6.1417Y-5.0984
X6.1614Y-3.0906
X6.1845Y-3.6941
X6.1894Y-4.772
X6.2008Y-3.0906
X6.2175Y-3.6914
X6.2205Y-4.7649
X6.2205Y-5.0385
X6.2402Y-2.8937
X6.2402Y-2.9331
X6.2504Y-3.692
X6.2944Y-3.7912
X6.2992Y-5.2362
X6.3189Y-1.8307
X6.3189Y-3.8189
X6.3189Y-3.8869
X6.3189Y-4.1142
X6.3197Y-3.607
X6.322Y-3.6413
X6.3386Y-2.8543
X6.3386Y-3.8583
X6.3386Y-5.1969
X6.3583Y-1.8307
X6.3583Y-3.9173
X6.378Y-3.5433
X6.378Y-3.787
X6.378Y-4.1142
X6.378Y-5.2362
X6.3827Y-3.9473
X6.3833Y-3.51
X6.3976Y-1.8307
X6.3976Y-5.1772
X6.4109Y-3.9766
X6.4173Y-2.8543
X6.4173Y-3.5039
X6.4173Y-3.7402
X6.4173Y-5.1291
X6.437Y-1.8307
X6.437Y-5.2362
X6.4453Y-3.9778
X6.4567Y-5.1772
X6.4593Y-3.7399
X6.4764Y-1.6152
X6.4764Y-5.1291
X6.4944Y-3.3961
X6.4961Y-3.7402
X6.5157Y-3.7008
X6.5496Y-3.6926
X6.5607Y-4.6348
X6.5945Y-4.252
X6.5946Y-4.284
X6.6014Y-2.6655
X6.6339Y-3.1854
X6.6404Y-4.07
X6.6453Y-4.1058
X6.6535Y-2.6378
X6.6617Y-4.6352
X6.6732Y-4.0748
X6.6732Y-4.2323
X6.6827Y-3.7782
X6.6886Y-4.2683
X6.6929Y-3.4449
X6.6929Y-4.311
X6.7071Y-3.646
X6.7124Y-3.5792
X6.7126Y-1.8898
X6.7126Y-2.8543
X6.7126Y-3.5433
X6.7126Y-3.8386
X6.7126Y-4.9213
X6.7133Y-3.8015
X6.742Y-3.776
X6.7441Y-5.2165
X6.7441Y-5.2939
X6.752Y-3.5565
X6.752Y-3.8976
X6.752Y-4.3307
X6.7717Y-5.315
X6.7761Y-4.2611
X6.7769Y-4.2991
X6.7784Y-3.9232
X6.781Y-4.0518
X6.7913Y-2.8543
X6.7913Y-4.0945
X6.8117Y-4.0687
X6.8307Y-3.7992
X6.8327Y-3.9082
X6.8487Y-3.9435
X6.8504Y-3.2677
X6.8504Y-3.4055
X6.8504Y-5.315
X6.8701Y-3.248
X6.8701Y-3.4252
X6.8701Y-4.2913
X6.8837Y-3.6025
X6.9225Y-4.7835
X6.9236Y-4.8231
X6.9291Y-1.6133
X6.9291Y-4.2126
X6.9488Y-5.315
X6.9684Y-4.395
X6.9685Y-3.2488
X6.9783Y-2.628
X6.985Y-3.4646
X6.9921Y-4.3543
X6.9961Y-5.2165
X6.9961Y-5.2874
X6.9984Y-4.3855
X7.0079Y-3.0512
X7.0274Y-3.9305
X7.0276Y-2.1063
X7.0276Y-2.1457
X7.0276Y-4.1496
X7.0276Y-4.9213
X7.0314Y-4.0804
X7.0383Y-4.1124
X7.039Y-3.9643
X7.0449Y-3.0377
X7.0472Y-3.4646
X7.0472Y-3.6024
X7.0669Y-3.248
X7.0669Y-3.3268
X7.0669Y-3.4252
X7.0669Y-3.6417
X7.0692Y-3.9796
X7.0843Y-2.9724
X7.0866Y-3.0118
X7.0866Y-3.6811
X7.0866Y-3.7992
X7.0977Y-2.9392
X7.102Y-2.4535
X7.1063Y-3.9764
X7.1063Y-4.0354
X7.1235Y-4.0051
X7.1301Y-2.4354
X7.1361Y-3.7267
X7.1457Y-2.4016
X7.1554Y-2.3626
X7.185Y-2.3435
X7.2279Y-3.8488
X7.2303Y-3.1102
X7.2417Y-3.8174
X7.2441Y-3.1417
X7.2543Y-3.7884
X7.2568Y-3.1707
X7.2835Y-3.0512
X7.31Y-3.2704
X7.31Y-3.2239
X7.313Y-3.0742
X7.3425Y-4.252
X7.3437Y-4.2861
X7.3466Y-2.698
X7.3544Y-2.6614
X7.3622Y-2.6181
X7.3819Y-1.6139
X7.3819Y-3.9764
X7.3888Y-4.0073
X7.4016Y-2.1654
X7.4016Y-4.0945
X7.4164Y-2.1356
X7.4409Y-2.1063
X7.4409Y-3.9961
X7.4468Y-4.031
X7.4505Y-4.3837
X7.4693Y-4.4094
X7.4803Y-4.311
X7.4803Y-4.3701
X7.4937Y-4.3414
X7.5036Y-4.1197
X7.5197Y-2.4016
X7.5422Y-4.1197
X7.5458Y-2.4253
X7.5591Y-2.5984
X7.5632Y-4.1433
X7.5894Y-2.622
X7.5984Y-3.5565
X7.6101Y-2.6458
X7.6371Y-3.5567
X7.6378Y-3.7008
X7.6513Y-4.1187
X7.6575Y-1.6142
X7.6575Y-3.6417
X7.6575Y-4.0157
X7.6772Y-3.7008
X7.6772Y-4.0945
X7.6969Y-2.8346
X7.6969Y-2.874
X7.6999Y-3.5433
X7.7165Y-4.3983
X7.7165Y-4.9213
X7.7362Y-3.1496
X7.7756Y-3.8386
X7.7756Y-3.8976
X7.7756Y-4.1339
X7.7835Y-3.5935
X7.7916Y-3.8674
X7.8346Y-2.6575
X7.9134Y-4.9401
X7.9331Y-4.5759
X8.0326Y-3.5895
X8.0419Y-4.1356
T4
X4.5079Y-2.0244
X4.5079Y-2.1244
X4.5079Y-2.2244
X4.5079Y-2.3244
X4.5079Y-2.626
X4.5079Y-2.726
X4.5079Y-2.826
X4.5079Y-2.926
X4.6079Y-2.0244
X4.6079Y-2.1244
X4.6079Y-2.2244
X4.6079Y-2.3244
X5.5285Y-1.622
X5.6285Y-1.622
X5.7285Y-1.622
X5.8285Y-1.622
X5.9285Y-1.622
X7.3693Y-5.1969
X7.4693Y-5.1969
X7.5693Y-5.1969
X7.6693Y-5.1969
X7.8528Y-2.9906
X7.8528Y-3.0906
X7.8528Y-3.1906
X7.8528Y-3.2906
X7.9528Y-2.3
X7.9528Y-2.4
X7.9528Y-2.5
X7.9528Y-2.6
X7.9528Y-2.7
X7.9528Y-2.9906
X7.9528Y-3.0906
X7.9528Y-3.1906
X7.9528Y-3.2906
T5
X4.65Y-1.6232
X4.65Y-1.7232
X4.75Y-1.6232
X4.75Y-1.7232
X4.85Y-1.6232
X4.85Y-1.7232
X4.95Y-1.6232
X4.95Y-1.7232
X5.05Y-1.6232
X5.05Y-1.7232
X5.15Y-1.6232
X5.15Y-1.7232
X5.25Y-1.6232
X5.25Y-1.7232
X5.35Y-1.6232
X5.35Y-1.7232
T6
X4.5272Y-4.7244
X4.5272Y-4.9213
X4.5371Y-3.3465
X4.5371Y-3.5433
X6.1611Y-1.753
X6.3579Y-1.753
X6.6138Y-1.7511
X6.8107Y-1.7511
X7.0666Y-1.7517
X7.2634Y-1.7517
X7.5193Y-1.7511
X7.7162Y-1.7511
T3
G00X6.6996Y-5.1312
M15
G01X6.6996Y-5.1667
M16
G05
G00X6.6996Y-5.2588
M15
G01X6.6996Y-5.2903
M16
G05
G00X7.0406Y-5.1312
M15
G01X7.0406Y-5.1667
M16
G05
G00X7.0406Y-5.2588
M15
G01X7.0406Y-5.2903
M16
G05
M30
